<svg width="53" height="53" viewBox="0 0 53 53" fill="none" xmlns="http://www.w3.org/2000/svg">
<path d="M26.2502 0.5C11.7486 0.5 0.000244141 12.2483 0.000244141 26.75C0.000244141 41.2517 11.7486 53 26.2502 53C40.7519 53 52.5002 41.2517 52.5002 26.75C52.5002 12.2483 40.7519 0.5 26.2502 0.5ZM30.6719 18.665C30.6719 18.3733 30.9169 18.1283 31.2086 18.1283H37.4152C37.7069 18.1283 37.9519 18.3733 37.9519 18.665V19.5633C37.9519 19.855 37.7069 20.1 37.4152 20.1H31.2086C30.9169 20.1 30.6719 19.855 30.6719 19.5633V18.665ZM26.2502 33.05C25.8652 33.8433 25.3402 34.4733 24.6869 34.94C24.0219 35.4183 23.2052 35.6983 22.2369 35.815C21.6302 35.885 20.1602 35.92 18.3869 35.9433H12.3436C11.7136 35.9433 11.6669 35.885 11.6669 35.8267V17.6733C11.6669 17.6033 11.7136 17.5567 12.3436 17.5567H19.4602C20.3352 17.5567 21.3969 17.615 22.1086 17.7433C22.8086 17.86 23.4386 18.1167 23.9986 18.5017C24.5586 18.8867 25.0136 19.4 25.3869 20.0417C25.7602 20.6833 25.9469 21.395 25.9469 22.1883C25.9469 23.0517 25.7136 23.845 25.2586 24.5567C24.8502 25.1983 24.3136 25.6883 23.6602 26.05C23.5669 26.0967 23.5786 26.2367 23.6719 26.26C24.6402 26.5983 25.3986 27.1233 25.9469 27.835C26.5419 28.6167 26.8336 29.55 26.8336 30.6117C26.8219 31.4517 26.6352 32.2567 26.2502 33.05ZM40.8336 29.76C40.8336 29.83 40.7752 29.9 40.6936 29.9H31.7219C31.6402 29.9 31.5819 29.97 31.5819 30.04C31.6286 31.0317 31.9202 31.65 32.4686 32.21C33.0402 32.805 33.7402 32.9683 34.5919 32.9683C35.3736 32.9683 36.5752 32.735 36.9252 31.4283C36.9369 31.37 37.0069 31.3233 37.0769 31.335L40.4836 31.37C40.5652 31.3817 40.6002 31.4633 40.5886 31.5567C40.5419 32.7117 39.3752 34.2517 38.3952 34.905C37.3802 35.5933 36.0969 35.9317 34.5686 35.9317C32.1419 35.9317 30.3452 35.1617 29.1786 33.6217C28.2569 32.385 27.8019 30.8333 27.8019 28.955C27.8019 26.715 28.4086 24.9533 29.6102 23.6817C30.8236 22.41 32.3519 21.78 34.1952 21.78C36.2719 21.78 37.9052 22.445 39.1069 23.775C40.2736 25.0817 40.8686 26.1783 40.8336 29.76Z" fill="#1A1A1A"/>
</svg>
