<svg width="196" height="195" viewBox="0 0 196 195" fill="none" xmlns="http://www.w3.org/2000/svg">
<circle cx="97.9663" cy="97.4022" r="96.9022" stroke="black"/>
<path d="M42.1942 103.498L37.399 85.7642H39.6352L43.7487 101.895H43.6052L47.6709 85.7642H49.919L45.1717 103.498H42.1942ZM52.3895 103.402V85.7642H54.3984V103.402H52.3895ZM58.9884 87.5579L59.9091 86.398V94.362L59.4069 93.6564H66.1751V95.4501H59.4069L59.9091 94.7446V102.768L58.9884 101.608H67.5025V103.402H57.8643V85.7642H67.5025V87.5579H58.9884ZM73.0018 103.402L70.2036 85.7642H72.3083L74.6879 102.529L74.377 102.517L78.1437 85.7642H80.8462L84.601 102.517L84.2901 102.529L86.6698 85.7642H88.7863L85.9642 103.402H82.8193L79.3754 87.4861H79.6146L76.1587 103.402H73.0018ZM109.852 85.7642H113.367V103.402H111.43V87.3905L111.49 87.4144L106.994 103.402H104.076L99.5558 87.4024L99.6156 87.3785V103.402H97.6784V85.7642H101.194L105.523 101.764H105.499L109.852 85.7642ZM123.53 103.641C122.502 103.641 121.557 103.438 120.696 103.031C119.843 102.625 119.098 102.035 118.46 101.262C117.83 100.48 117.34 99.5278 116.989 98.4038C116.647 97.2797 116.475 96.0002 116.475 94.5653C116.475 93.1303 116.647 91.8548 116.989 90.7387C117.34 89.6147 117.83 88.67 118.46 87.9047C119.098 87.1314 119.847 86.5454 120.708 86.1468C121.569 85.7482 122.51 85.549 123.53 85.549C124.559 85.549 125.503 85.7482 126.364 86.1468C127.225 86.5454 127.971 87.1314 128.601 87.9047C129.238 88.67 129.729 89.6147 130.071 90.7387C130.422 91.8548 130.598 93.1303 130.598 94.5653C130.598 96.0002 130.422 97.2797 130.071 98.4038C129.729 99.5278 129.238 100.48 128.601 101.262C127.971 102.035 127.225 102.625 126.364 103.031C125.503 103.438 124.559 103.641 123.53 103.641ZM123.53 101.8C124.511 101.8 125.376 101.533 126.125 100.999C126.875 100.465 127.461 99.6633 127.883 98.5951C128.306 97.5189 128.517 96.1756 128.517 94.5653C128.517 92.9469 128.302 91.6077 127.871 90.5474C127.449 89.4871 126.863 88.6979 126.113 88.1797C125.364 87.6615 124.503 87.4024 123.53 87.4024C122.566 87.4024 121.705 87.6615 120.947 88.1797C120.198 88.6979 119.608 89.4871 119.178 90.5474C118.755 91.6077 118.544 92.9469 118.544 94.5653C118.544 96.1836 118.755 97.5308 119.178 98.607C119.608 99.6753 120.198 100.476 120.947 101.011C121.705 101.537 122.566 101.8 123.53 101.8ZM133.489 103.402V85.7642H139.612C141.23 85.7642 142.462 86.1468 143.307 86.9122C144.152 87.6775 144.574 88.8454 144.574 90.4158C144.574 91.3565 144.395 92.1577 144.036 92.8194C143.685 93.4731 143.259 93.9793 142.757 94.3381C142.262 94.6968 141.804 94.9001 141.381 94.9479C141.812 94.9798 142.234 95.0994 142.649 95.3066C143.071 95.5059 143.422 95.8169 143.701 96.2394C143.98 96.6619 144.12 97.2279 144.12 97.9374C144.12 98.5911 144.12 99.2607 144.12 99.9463C144.12 100.624 144.12 101.294 144.12 101.955C144.12 102.298 144.148 102.605 144.203 102.876C144.259 103.139 144.323 103.314 144.395 103.402H142.338C142.282 103.299 142.226 103.119 142.171 102.864C142.115 102.609 142.087 102.306 142.087 101.955C142.087 101.341 142.087 100.716 142.087 100.078C142.087 99.4401 142.087 98.8103 142.087 98.1885C142.087 97.4073 141.84 96.8253 141.346 96.4427C140.851 96.06 140.154 95.8687 139.253 95.8687H134.912L135.486 95.0914V103.402H133.489ZM135.486 94.924L134.912 94.075H139.277C139.867 94.075 140.401 93.9315 140.879 93.6445C141.365 93.3495 141.752 92.943 142.039 92.4248C142.334 91.8986 142.482 91.2848 142.482 90.5833C142.482 89.4911 142.195 88.7138 141.621 88.2514C141.047 87.7891 140.217 87.5579 139.133 87.5579H134.864L135.486 86.673V94.924ZM148.837 87.5579L149.757 86.398V94.362L149.255 93.6564H156.023V95.4501H149.255L149.757 94.7446V102.768L148.837 101.608H157.351V103.402H147.713V85.7642H157.351V87.5579H148.837Z" fill="black"/>
</svg>
