<svg width="146" height="115" viewBox="0 0 146 115" fill="none" xmlns="http://www.w3.org/2000/svg">
<path fill-rule="evenodd" clip-rule="evenodd" d="M36.3153 51.3387C36.3153 51.1071 36.3097 50.8756 36.2994 50.6459C37.3423 49.8963 38.2469 48.9561 38.9583 47.8881C38.0051 48.3129 36.9744 48.5985 35.8942 48.7274C36.9987 48.0664 37.8417 47.0217 38.2432 45.7753C37.2097 46.3887 36.0707 46.8312 34.8542 47.0702C33.8795 46.0339 32.495 45.386 30.9601 45.386C28.0146 45.386 25.6264 47.7751 25.6264 50.7206C25.6264 51.1398 25.6721 51.5459 25.7636 51.9371C21.3309 51.7131 17.3985 49.59 14.7685 46.3616C14.3092 47.1496 14.0468 48.0664 14.0468 49.0448C14.0468 50.8952 14.9889 52.529 16.4191 53.4841C15.5453 53.457 14.7228 53.2162 14.0039 52.8175C14.003 52.839 14.003 52.8623 14.003 52.8847C14.003 55.4708 15.8412 57.6265 18.2817 58.1157C17.8345 58.238 17.3621 58.3015 16.8757 58.3015C16.533 58.3015 16.1979 58.267 15.873 58.2054C16.5517 60.3256 18.5226 61.8679 20.8566 61.9109C19.0304 63.3412 16.731 64.1945 14.2308 64.1945C13.8004 64.1945 13.3756 64.1693 12.9583 64.1198C15.3184 65.6341 18.123 66.5145 21.1357 66.5145C30.9508 66.5145 36.3153 58.3884 36.3153 51.3387Z" fill="#1A1A1A"/>
<path d="M19.3924 88.9098H16.5904L17.1724 88.1238V96.4998H15.5884V88.1238L16.2004 88.9098H13.3744V87.6498H19.3924V88.9098ZM25.7436 96.4998L24.2616 90.1278H25.4676L26.9136 96.0018H26.6556L27.5796 90.1278H29.2176L27.9096 96.4998H25.7436ZM21.3516 96.4998L20.0376 90.1278H21.6756L22.6056 96.0018H22.3476L23.7816 90.1278H24.9876L23.5296 96.4998H21.3516ZM30.2104 96.4998V90.1278H31.7704V96.4998H30.2104ZM30.9964 88.9518C30.7404 88.9518 30.5164 88.8838 30.3244 88.7478C30.1364 88.6078 30.0424 88.4138 30.0424 88.1658C30.0424 87.9218 30.1364 87.7318 30.3244 87.5958C30.5164 87.4598 30.7404 87.3918 30.9964 87.3918C31.2484 87.3918 31.4684 87.4598 31.6564 87.5958C31.8444 87.7318 31.9384 87.9218 31.9384 88.1658C31.9384 88.4138 31.8444 88.6078 31.6564 88.7478C31.4684 88.8838 31.2484 88.9518 30.9964 88.9518ZM36.2621 96.6198C36.0341 96.6198 35.8021 96.5978 35.5661 96.5538C35.3301 96.5098 35.1141 96.4278 34.9181 96.3078C34.7221 96.1878 34.5641 96.0118 34.4441 95.7798C34.3241 95.5478 34.2641 95.2418 34.2641 94.8618C34.2641 94.7738 34.2641 94.6858 34.2641 94.5978C34.2641 94.5058 34.2641 94.4118 34.2641 94.3158V91.3878H32.7581V90.1278H33.3701C33.5781 90.1278 33.7421 90.1198 33.8621 90.1038C33.9821 90.0838 34.0701 90.0398 34.1261 89.9718C34.1821 89.9038 34.2181 89.7978 34.2341 89.6538C34.2541 89.5058 34.2641 89.3018 34.2641 89.0418V88.0278H35.8481V90.1278H37.7441V91.3878H35.8481V93.9438C35.8481 94.0198 35.8481 94.0958 35.8481 94.1718C35.8481 94.2438 35.8481 94.3138 35.8481 94.3818C35.8481 94.6778 35.8841 94.9158 35.9561 95.0958C36.0281 95.2758 36.1981 95.3658 36.4661 95.3658C36.5941 95.3658 36.7141 95.3538 36.8261 95.3298C36.9421 95.3058 37.0281 95.2818 37.0841 95.2578V96.4938C37.0081 96.5218 36.8981 96.5498 36.7541 96.5778C36.6101 96.6058 36.4461 96.6198 36.2621 96.6198ZM41.3598 96.6198C41.1318 96.6198 40.8998 96.5978 40.6638 96.5538C40.4278 96.5098 40.2118 96.4278 40.0158 96.3078C39.8198 96.1878 39.6618 96.0118 39.5418 95.7798C39.4218 95.5478 39.3618 95.2418 39.3618 94.8618C39.3618 94.7738 39.3618 94.6858 39.3618 94.5978C39.3618 94.5058 39.3618 94.4118 39.3618 94.3158V91.3878H37.8558V90.1278H38.4678C38.6758 90.1278 38.8398 90.1198 38.9598 90.1038C39.0798 90.0838 39.1678 90.0398 39.2238 89.9718C39.2798 89.9038 39.3158 89.7978 39.3318 89.6538C39.3518 89.5058 39.3618 89.3018 39.3618 89.0418V88.0278H40.9458V90.1278H42.8418V91.3878H40.9458V93.9438C40.9458 94.0198 40.9458 94.0958 40.9458 94.1718C40.9458 94.2438 40.9458 94.3138 40.9458 94.3818C40.9458 94.6778 40.9818 94.9158 41.0538 95.0958C41.1258 95.2758 41.2958 95.3658 41.5638 95.3658C41.6918 95.3658 41.8118 95.3538 41.9238 95.3298C42.0398 95.3058 42.1258 95.2818 42.1818 95.2578V96.4938C42.1058 96.5218 41.9958 96.5498 41.8518 96.5778C41.7078 96.6058 41.5438 96.6198 41.3598 96.6198ZM44.4456 93.8238V92.7018H48.9036L48.7236 93.0018C48.7236 92.9778 48.7236 92.9518 48.7236 92.9238C48.7236 92.8918 48.7236 92.8658 48.7236 92.8458C48.7236 92.5698 48.6616 92.3118 48.5376 92.0718C48.4136 91.8278 48.2256 91.6318 47.9736 91.4838C47.7216 91.3318 47.4016 91.2558 47.0136 91.2558C46.6296 91.2558 46.2956 91.3378 46.0116 91.5018C45.7316 91.6618 45.5136 91.8938 45.3576 92.1978C45.2056 92.5018 45.1296 92.8658 45.1296 93.2898C45.1296 93.7258 45.2036 94.1018 45.3516 94.4178C45.4996 94.7298 45.7156 94.9698 45.9996 95.1378C46.2876 95.3018 46.6376 95.3838 47.0496 95.3838C47.3296 95.3838 47.5716 95.3578 47.7756 95.3058C47.9796 95.2538 48.1456 95.1838 48.2736 95.0958C48.4056 95.0038 48.5036 94.9058 48.5676 94.8018C48.6356 94.6978 48.6756 94.5938 48.6876 94.4898H50.2596C50.2356 94.7578 50.1456 95.0198 49.9896 95.2758C49.8376 95.5278 49.6236 95.7578 49.3476 95.9658C49.0716 96.1698 48.7356 96.3338 48.3396 96.4578C47.9476 96.5778 47.4996 96.6378 46.9956 96.6378C46.3116 96.6378 45.7136 96.4978 45.2016 96.2178C44.6896 95.9378 44.2896 95.5478 44.0016 95.0478C43.7176 94.5478 43.5756 93.9758 43.5756 93.3318C43.5756 92.6718 43.7196 92.0938 44.0076 91.5978C44.2996 91.1018 44.7036 90.7158 45.2196 90.4398C45.7356 90.1598 46.3276 90.0198 46.9956 90.0198C47.6836 90.0198 48.2776 90.1598 48.7776 90.4398C49.2816 90.7198 49.6696 91.1098 49.9416 91.6098C50.2136 92.1058 50.3496 92.6838 50.3496 93.3438C50.3496 93.4278 50.3476 93.5178 50.3436 93.6138C50.3396 93.7098 50.3336 93.7798 50.3256 93.8238H44.4456ZM51.6505 96.4998V90.1278H53.2285V92.2458L52.8625 92.0418C52.9025 91.7658 52.9765 91.5058 53.0845 91.2618C53.1925 91.0138 53.3365 90.7978 53.5165 90.6138C53.6965 90.4258 53.9145 90.2798 54.1705 90.1758C54.4265 90.0718 54.7185 90.0198 55.0465 90.0198C55.3065 90.0198 55.5105 90.0398 55.6585 90.0798C55.8105 90.1158 55.9045 90.1458 55.9405 90.1698L55.6525 91.6158C55.6125 91.5878 55.5305 91.5538 55.4065 91.5138C55.2865 91.4698 55.1245 91.4478 54.9205 91.4478C54.5965 91.4478 54.3245 91.5038 54.1045 91.6158C53.8885 91.7238 53.7165 91.8718 53.5885 92.0598C53.4605 92.2438 53.3685 92.4478 53.3125 92.6718C53.2565 92.8918 53.2285 93.1118 53.2285 93.3318V96.4998H51.6505Z" fill="#1A1A1A"/>
</svg>
