<svg width="146" height="115" viewBox="0 0 146 115" fill="none" xmlns="http://www.w3.org/2000/svg">
<path fill-rule="evenodd" clip-rule="evenodd" d="M27.9079 55.9605H31.5523L32.0242 51.3705H27.9097V48.6726C27.9097 47.6584 28.5819 47.422 29.0547 47.422H31.9592V42.9655L27.9575 42.9502C23.5182 42.9502 22.5076 46.2734 22.5076 48.4001V51.3696H19.9406V55.9605H22.5076V68.95H27.9079V55.9605Z" fill="#1A1A1A"/>
<path d="M14.6046 88.9098L15.3186 88.1238V91.9578L14.8266 91.5318H18.4386V92.7978H14.8266L15.3186 92.3418V96.4998H13.7466V87.6498H18.9726V88.9098H14.6046ZM21.9955 96.6318C21.5195 96.6318 21.1015 96.5578 20.7415 96.4098C20.3815 96.2578 20.0995 96.0398 19.8955 95.7558C19.6915 95.4718 19.5895 95.1298 19.5895 94.7298C19.5895 94.2938 19.7075 93.9358 19.9435 93.6558C20.1835 93.3718 20.5055 93.1538 20.9095 93.0018C21.3135 92.8458 21.7615 92.7458 22.2535 92.7018C22.9815 92.6298 23.4895 92.5618 23.7775 92.4978C24.0695 92.4298 24.2155 92.3218 24.2155 92.1738C24.2155 92.1698 24.2155 92.1678 24.2155 92.1678C24.2155 92.1638 24.2155 92.1618 24.2155 92.1618C24.2155 91.8818 24.0895 91.6658 23.8375 91.5138C23.5855 91.3618 23.2295 91.2858 22.7695 91.2858C22.2855 91.2858 21.9135 91.3718 21.6535 91.5438C21.3975 91.7118 21.2695 91.9798 21.2695 92.3478H19.7095C19.7095 91.8478 19.8415 91.4258 20.1055 91.0818C20.3735 90.7338 20.7395 90.4698 21.2035 90.2898C21.6675 90.1098 22.1935 90.0198 22.7815 90.0198C23.3295 90.0198 23.8315 90.1018 24.2875 90.2658C24.7435 90.4298 25.1095 90.6778 25.3855 91.0098C25.6615 91.3418 25.7995 91.7558 25.7995 92.2518C25.7995 92.3358 25.7995 92.4198 25.7995 92.5038C25.7995 92.5878 25.7995 92.6718 25.7995 92.7558V95.1558C25.7995 95.3078 25.8035 95.4578 25.8115 95.6058C25.8235 95.7498 25.8455 95.8798 25.8775 95.9958C25.9175 96.1238 25.9655 96.2318 26.0215 96.3198C26.0775 96.4078 26.1215 96.4678 26.1535 96.4998H24.5935C24.5655 96.4718 24.5255 96.4178 24.4735 96.3378C24.4255 96.2538 24.3815 96.1578 24.3415 96.0498C24.3015 95.9298 24.2715 95.8018 24.2515 95.6658C24.2315 95.5258 24.2215 95.3718 24.2215 95.2038L24.5335 95.4198C24.4135 95.6638 24.2295 95.8778 23.9815 96.0618C23.7375 96.2418 23.4455 96.3818 23.1055 96.4818C22.7655 96.5818 22.3955 96.6318 21.9955 96.6318ZM22.3795 95.3898C22.7075 95.3898 23.0115 95.3338 23.2915 95.2218C23.5715 95.1098 23.7975 94.9378 23.9695 94.7058C24.1415 94.4698 24.2275 94.1678 24.2275 93.7998V92.9478L24.6115 93.3798C24.3555 93.4758 24.0475 93.5558 23.6875 93.6198C23.3275 93.6798 22.9635 93.7278 22.5955 93.7638C22.1235 93.8078 21.7675 93.8898 21.5275 94.0098C21.2915 94.1298 21.1735 94.3258 21.1735 94.5978C21.1735 94.8618 21.2735 95.0598 21.4735 95.1918C21.6735 95.3238 21.9755 95.3898 22.3795 95.3898ZM30.4146 96.6318C29.7426 96.6318 29.1486 96.4938 28.6326 96.2178C28.1166 95.9418 27.7126 95.5538 27.4206 95.0538C27.1286 94.5538 26.9826 93.9678 26.9826 93.2958C26.9826 92.6278 27.1286 92.0478 27.4206 91.5558C27.7126 91.0638 28.1166 90.6858 28.6326 90.4218C29.1486 90.1538 29.7426 90.0198 30.4146 90.0198C30.9186 90.0198 31.3646 90.0938 31.7526 90.2418C32.1406 90.3898 32.4666 90.5878 32.7306 90.8358C32.9986 91.0798 33.2026 91.3498 33.3426 91.6458C33.4826 91.9378 33.5526 92.2298 33.5526 92.5218C33.5526 92.5298 33.5526 92.5378 33.5526 92.5458C33.5526 92.5538 33.5526 92.5618 33.5526 92.5698H31.9866C31.9866 92.5498 31.9846 92.5278 31.9806 92.5038C31.9766 92.4798 31.9726 92.4558 31.9686 92.4318C31.9366 92.2278 31.8546 92.0438 31.7226 91.8798C31.5906 91.7118 31.4146 91.5778 31.1946 91.4778C30.9746 91.3778 30.7086 91.3278 30.3966 91.3278C30.0646 91.3278 29.7606 91.4018 29.4846 91.5498C29.2126 91.6938 28.9946 91.9118 28.8306 92.2038C28.6706 92.4958 28.5906 92.8598 28.5906 93.2958C28.5906 93.7278 28.6706 94.0958 28.8306 94.3998C28.9906 94.6998 29.2066 94.9298 29.4786 95.0898C29.7546 95.2458 30.0606 95.3238 30.3966 95.3238C30.7526 95.3238 31.0426 95.2698 31.2666 95.1618C31.4946 95.0498 31.6666 94.9018 31.7826 94.7178C31.8986 94.5298 31.9646 94.3258 31.9806 94.1058H33.5526C33.5526 94.4018 33.4846 94.6998 33.3486 94.9998C33.2126 95.2958 33.0126 95.5678 32.7486 95.8158C32.4846 96.0638 32.1566 96.2618 31.7646 96.4098C31.3766 96.5578 30.9266 96.6318 30.4146 96.6318ZM35.4464 93.8238V92.7018H39.9044L39.7244 93.0018C39.7244 92.9778 39.7244 92.9518 39.7244 92.9238C39.7244 92.8918 39.7244 92.8658 39.7244 92.8458C39.7244 92.5698 39.6624 92.3118 39.5384 92.0718C39.4144 91.8278 39.2264 91.6318 38.9744 91.4838C38.7224 91.3318 38.4024 91.2558 38.0144 91.2558C37.6304 91.2558 37.2964 91.3378 37.0124 91.5018C36.7324 91.6618 36.5144 91.8938 36.3584 92.1978C36.2064 92.5018 36.1304 92.8658 36.1304 93.2898C36.1304 93.7258 36.2044 94.1018 36.3524 94.4178C36.5004 94.7298 36.7164 94.9698 37.0004 95.1378C37.2884 95.3018 37.6384 95.3838 38.0504 95.3838C38.3304 95.3838 38.5724 95.3578 38.7764 95.3058C38.9804 95.2538 39.1464 95.1838 39.2744 95.0958C39.4064 95.0038 39.5044 94.9058 39.5684 94.8018C39.6364 94.6978 39.6764 94.5938 39.6884 94.4898H41.2604C41.2364 94.7578 41.1464 95.0198 40.9904 95.2758C40.8384 95.5278 40.6244 95.7578 40.3484 95.9658C40.0724 96.1698 39.7364 96.3338 39.3404 96.4578C38.9484 96.5778 38.5004 96.6378 37.9964 96.6378C37.3124 96.6378 36.7144 96.4978 36.2024 96.2178C35.6904 95.9378 35.2904 95.5478 35.0024 95.0478C34.7184 94.5478 34.5764 93.9758 34.5764 93.3318C34.5764 92.6718 34.7204 92.0938 35.0084 91.5978C35.3004 91.1018 35.7044 90.7158 36.2204 90.4398C36.7364 90.1598 37.3284 90.0198 37.9964 90.0198C38.6844 90.0198 39.2784 90.1598 39.7784 90.4398C40.2824 90.7198 40.6704 91.1098 40.9424 91.6098C41.2144 92.1058 41.3504 92.6838 41.3504 93.3438C41.3504 93.4278 41.3484 93.5178 41.3444 93.6138C41.3404 93.7098 41.3344 93.7798 41.3264 93.8238H35.4464ZM46.2393 96.6318C45.7433 96.6318 45.2833 96.5038 44.8593 96.2478C44.4393 95.9878 44.0993 95.6338 43.8393 95.1858C43.5833 94.7378 43.4553 94.2338 43.4553 93.6738C43.4553 93.6578 43.4553 93.6438 43.4553 93.6318C43.4553 93.6158 43.4553 93.6018 43.4553 93.5898L44.2353 93.5718C44.2353 93.5798 44.2353 93.5898 44.2353 93.6018C44.2353 93.6138 44.2353 93.6238 44.2353 93.6318C44.2353 93.9438 44.3133 94.2218 44.4693 94.4658C44.6253 94.7058 44.8273 94.8958 45.0753 95.0358C45.3273 95.1718 45.5953 95.2398 45.8793 95.2398C46.3393 95.2398 46.7313 95.0818 47.0553 94.7658C47.3793 94.4498 47.5413 93.9598 47.5413 93.2958C47.5413 92.6278 47.3793 92.1398 47.0553 91.8318C46.7353 91.5198 46.3433 91.3638 45.8793 91.3638C45.5993 91.3638 45.3333 91.4318 45.0813 91.5678C44.8333 91.6998 44.6293 91.8838 44.4693 92.1198C44.3133 92.3558 44.2353 92.6318 44.2353 92.9478L43.4553 92.9118C43.4553 92.3478 43.5833 91.8478 43.8393 91.4118C44.0993 90.9758 44.4393 90.6358 44.8593 90.3918C45.2833 90.1438 45.7433 90.0198 46.2393 90.0198C46.7553 90.0198 47.2353 90.1478 47.6793 90.4038C48.1273 90.6558 48.4873 91.0258 48.7593 91.5138C49.0353 91.9978 49.1733 92.5918 49.1733 93.2958C49.1733 94.0198 49.0393 94.6298 48.7713 95.1258C48.5033 95.6218 48.1473 95.9978 47.7033 96.2538C47.2593 96.5058 46.7713 96.6318 46.2393 96.6318ZM42.6513 96.4998V87.1218H44.2353V96.4998H42.6513ZM53.6115 96.6258C52.9395 96.6258 52.3475 96.4858 51.8355 96.2058C51.3235 95.9218 50.9215 95.5298 50.6295 95.0298C50.3415 94.5298 50.1975 93.9578 50.1975 93.3138C50.1975 92.6658 50.3415 92.0958 50.6295 91.6038C50.9215 91.1078 51.3235 90.7198 51.8355 90.4398C52.3475 90.1598 52.9395 90.0198 53.6115 90.0198C54.2835 90.0198 54.8755 90.1598 55.3875 90.4398C55.8995 90.7198 56.2995 91.1078 56.5875 91.6038C56.8795 92.0958 57.0255 92.6658 57.0255 93.3138C57.0255 93.9578 56.8795 94.5298 56.5875 95.0298C56.2995 95.5298 55.8995 95.9218 55.3875 96.2058C54.8755 96.4858 54.2835 96.6258 53.6115 96.6258ZM53.6115 95.3358C53.9755 95.3358 54.2935 95.2518 54.5655 95.0838C54.8375 94.9158 55.0495 94.6818 55.2015 94.3818C55.3535 94.0778 55.4295 93.7218 55.4295 93.3138C55.4295 92.9058 55.3535 92.5538 55.2015 92.2578C55.0495 91.9578 54.8375 91.7258 54.5655 91.5618C54.2935 91.3978 53.9755 91.3158 53.6115 91.3158C53.2515 91.3158 52.9335 91.3978 52.6575 91.5618C52.3855 91.7258 52.1735 91.9578 52.0215 92.2578C51.8695 92.5538 51.7935 92.9058 51.7935 93.3138C51.7935 93.7218 51.8695 94.0778 52.0215 94.3818C52.1735 94.6818 52.3855 94.9158 52.6575 95.0838C52.9335 95.2518 53.2515 95.3358 53.6115 95.3358ZM61.463 96.6258C60.791 96.6258 60.199 96.4858 59.687 96.2058C59.175 95.9218 58.773 95.5298 58.481 95.0298C58.193 94.5298 58.049 93.9578 58.049 93.3138C58.049 92.6658 58.193 92.0958 58.481 91.6038C58.773 91.1078 59.175 90.7198 59.687 90.4398C60.199 90.1598 60.791 90.0198 61.463 90.0198C62.135 90.0198 62.727 90.1598 63.239 90.4398C63.751 90.7198 64.151 91.1078 64.439 91.6038C64.731 92.0958 64.877 92.6658 64.877 93.3138C64.877 93.9578 64.731 94.5298 64.439 95.0298C64.151 95.5298 63.751 95.9218 63.239 96.2058C62.727 96.4858 62.135 96.6258 61.463 96.6258ZM61.463 95.3358C61.827 95.3358 62.145 95.2518 62.417 95.0838C62.689 94.9158 62.901 94.6818 63.053 94.3818C63.205 94.0778 63.281 93.7218 63.281 93.3138C63.281 92.9058 63.205 92.5538 63.053 92.2578C62.901 91.9578 62.689 91.7258 62.417 91.5618C62.145 91.3978 61.827 91.3158 61.463 91.3158C61.103 91.3158 60.785 91.3978 60.509 91.5618C60.237 91.7258 60.025 91.9578 59.873 92.2578C59.721 92.5538 59.645 92.9058 59.645 93.3138C59.645 93.7218 59.721 94.0778 59.873 94.3818C60.025 94.6818 60.237 94.9158 60.509 95.0838C60.785 95.2518 61.103 95.3358 61.463 95.3358ZM66.1826 96.4998V87.1218H67.6826V92.6178L67.3406 92.4498L69.9746 90.1278H71.9366L68.8166 92.9058L69.1706 92.2578L71.9066 96.4998H70.2386L68.1386 93.0978L68.5226 93.1638L67.5026 94.0758L67.6826 93.3738V96.4998H66.1826Z" fill="#1A1A1A"/>
</svg>
