<svg width="146" height="115" viewBox="0 0 146 115" fill="none" xmlns="http://www.w3.org/2000/svg">
<path fill-rule="evenodd" clip-rule="evenodd" d="M28.9973 55.2652C28.7332 54.6556 28.4582 54.0475 28.1654 53.4456C30.6674 52.3619 32.6784 50.8901 34.1765 49.024C35.6383 50.7507 36.5554 52.9436 36.691 55.345C33.9016 54.888 31.336 54.8624 28.9973 55.2652ZM31.9433 64.876C31.4684 62.3275 30.7728 59.8363 29.8634 57.4055C31.8952 57.1181 34.1316 57.1925 36.5779 57.6177C36.1054 60.6364 34.3826 63.2431 31.9433 64.876ZM19.3919 64.4112C21.5252 61.0648 24.2481 58.8873 27.6224 57.8819C28.6271 60.5032 29.3661 63.2005 29.8363 65.9628C26.321 67.3215 22.3719 66.7374 19.3919 64.4112ZM15.2584 55.6734C19.4267 55.6672 23.0234 55.1885 26.0359 54.2404C26.2884 54.7547 26.5301 55.2714 26.7617 55.7919C23.1016 56.9353 20.0844 59.2809 17.7311 62.8116C16.0369 60.7782 15.1941 58.3126 15.2584 55.6734ZM21.1379 46.3787C22.5803 48.2665 23.8576 50.2123 24.9692 52.2085C22.3355 52.9839 19.1943 53.3821 15.5605 53.4069C16.3111 50.3355 18.3794 47.7815 21.1379 46.3787ZM32.5289 47.4562C31.2244 49.1395 29.4226 50.4703 27.1266 51.4424C26.0266 49.4268 24.7694 47.4608 23.3487 45.5522C26.565 44.7326 29.8905 45.4189 32.5289 47.4562ZM25.9825 42.9502C18.8031 42.9502 12.9825 48.7707 12.9825 55.95C12.9825 63.1292 18.8031 68.9497 25.9825 68.9497C33.1618 68.9497 38.9824 63.1292 38.9824 55.95C38.9824 48.7707 33.1618 42.9502 25.9825 42.9502Z" fill="#1A1A1A"/>
<path d="M13.7466 96.4998V87.6498H16.3926C16.9806 87.6498 17.5146 87.7558 17.9946 87.9678C18.4746 88.1758 18.8866 88.4738 19.2306 88.8618C19.5746 89.2498 19.8406 89.7158 20.0286 90.2598C20.2166 90.7998 20.3106 91.4018 20.3106 92.0658C20.3106 92.7298 20.2166 93.3338 20.0286 93.8778C19.8406 94.4178 19.5746 94.8838 19.2306 95.2758C18.8866 95.6678 18.4746 95.9698 17.9946 96.1818C17.5146 96.3938 16.9806 96.4998 16.3926 96.4998H13.7466ZM15.3306 96.0258L14.6166 95.2398H16.1886C16.6686 95.2398 17.0966 95.1118 17.4726 94.8558C17.8526 94.5958 18.1526 94.2298 18.3726 93.7578C18.5926 93.2818 18.7026 92.7178 18.7026 92.0658C18.7026 91.4098 18.5926 90.8458 18.3726 90.3738C18.1526 89.9018 17.8526 89.5398 17.4726 89.2878C17.0966 89.0358 16.6686 88.9098 16.1886 88.9098H14.6166L15.3306 88.1238V96.0258ZM21.6279 96.4998V90.1278H23.2059V92.2458L22.8399 92.0418C22.8799 91.7658 22.9539 91.5058 23.0619 91.2618C23.1699 91.0138 23.3139 90.7978 23.4939 90.6138C23.6739 90.4258 23.8919 90.2798 24.1479 90.1758C24.4039 90.0718 24.6959 90.0198 25.0239 90.0198C25.2839 90.0198 25.4879 90.0398 25.6359 90.0798C25.7879 90.1158 25.8819 90.1458 25.9179 90.1698L25.6299 91.6158C25.5899 91.5878 25.5079 91.5538 25.3839 91.5138C25.2639 91.4698 25.1019 91.4478 24.8979 91.4478C24.5739 91.4478 24.3019 91.5038 24.0819 91.6158C23.8659 91.7238 23.6939 91.8718 23.5659 92.0598C23.4379 92.2438 23.3459 92.4478 23.2899 92.6718C23.2339 92.8918 23.2059 93.1118 23.2059 93.3318V96.4998H21.6279ZM26.8831 96.4998V90.1278H28.4431V96.4998H26.8831ZM27.6691 88.9518C27.4131 88.9518 27.1891 88.8838 26.9971 88.7478C26.8091 88.6078 26.7151 88.4138 26.7151 88.1658C26.7151 87.9218 26.8091 87.7318 26.9971 87.5958C27.1891 87.4598 27.4131 87.3918 27.6691 87.3918C27.9211 87.3918 28.1411 87.4598 28.3291 87.5958C28.5171 87.7318 28.6111 87.9218 28.6111 88.1658C28.6111 88.4138 28.5171 88.6078 28.3291 88.7478C28.1411 88.8838 27.9211 88.9518 27.6691 88.9518ZM33.5948 96.6318C33.0988 96.6318 32.6388 96.5038 32.2148 96.2478C31.7948 95.9878 31.4548 95.6338 31.1948 95.1858C30.9388 94.7378 30.8108 94.2338 30.8108 93.6738C30.8108 93.6578 30.8108 93.6438 30.8108 93.6318C30.8108 93.6158 30.8108 93.6018 30.8108 93.5898L31.5908 93.5718C31.5908 93.5798 31.5908 93.5898 31.5908 93.6018C31.5908 93.6138 31.5908 93.6238 31.5908 93.6318C31.5908 93.9438 31.6688 94.2218 31.8248 94.4658C31.9808 94.7058 32.1828 94.8958 32.4308 95.0358C32.6828 95.1718 32.9508 95.2398 33.2348 95.2398C33.6948 95.2398 34.0868 95.0818 34.4108 94.7658C34.7348 94.4498 34.8968 93.9598 34.8968 93.2958C34.8968 92.6278 34.7348 92.1398 34.4108 91.8318C34.0908 91.5198 33.6988 91.3638 33.2348 91.3638C32.9548 91.3638 32.6888 91.4318 32.4368 91.5678C32.1888 91.6998 31.9848 91.8838 31.8248 92.1198C31.6688 92.3558 31.5908 92.6318 31.5908 92.9478L30.8108 92.9118C30.8108 92.3478 30.9388 91.8478 31.1948 91.4118C31.4548 90.9758 31.7948 90.6358 32.2148 90.3918C32.6388 90.1438 33.0988 90.0198 33.5948 90.0198C34.1108 90.0198 34.5908 90.1478 35.0348 90.4038C35.4828 90.6558 35.8428 91.0258 36.1148 91.5138C36.3908 91.9978 36.5288 92.5918 36.5288 93.2958C36.5288 94.0198 36.3948 94.6298 36.1268 95.1258C35.8588 95.6218 35.5028 95.9978 35.0588 96.2538C34.6148 96.5058 34.1268 96.6318 33.5948 96.6318ZM30.0068 96.4998V87.1218H31.5908V96.4998H30.0068ZM41.4229 96.6318C40.9269 96.6318 40.4669 96.5038 40.0429 96.2478C39.6229 95.9878 39.2829 95.6338 39.0229 95.1858C38.7669 94.7378 38.6389 94.2338 38.6389 93.6738C38.6389 93.6578 38.6389 93.6438 38.6389 93.6318C38.6389 93.6158 38.6389 93.6018 38.6389 93.5898L39.4189 93.5718C39.4189 93.5798 39.4189 93.5898 39.4189 93.6018C39.4189 93.6138 39.4189 93.6238 39.4189 93.6318C39.4189 93.9438 39.4969 94.2218 39.6529 94.4658C39.8089 94.7058 40.0109 94.8958 40.2589 95.0358C40.5109 95.1718 40.7789 95.2398 41.0629 95.2398C41.5229 95.2398 41.9149 95.0818 42.2389 94.7658C42.5629 94.4498 42.7249 93.9598 42.7249 93.2958C42.7249 92.6278 42.5629 92.1398 42.2389 91.8318C41.9189 91.5198 41.5269 91.3638 41.0629 91.3638C40.7829 91.3638 40.5169 91.4318 40.2649 91.5678C40.0169 91.6998 39.8129 91.8838 39.6529 92.1198C39.4969 92.3558 39.4189 92.6318 39.4189 92.9478L38.6389 92.9118C38.6389 92.3478 38.7669 91.8478 39.0229 91.4118C39.2829 90.9758 39.6229 90.6358 40.0429 90.3918C40.4669 90.1438 40.9269 90.0198 41.4229 90.0198C41.9389 90.0198 42.4189 90.1478 42.8629 90.4038C43.3109 90.6558 43.6709 91.0258 43.9429 91.5138C44.2189 91.9978 44.3569 92.5918 44.3569 93.2958C44.3569 94.0198 44.2229 94.6298 43.9549 95.1258C43.6869 95.6218 43.3309 95.9978 42.8869 96.2538C42.4429 96.5058 41.9549 96.6318 41.4229 96.6318ZM37.8349 96.4998V87.1218H39.4189V96.4998H37.8349ZM49.2511 96.6318C48.7551 96.6318 48.2951 96.5038 47.8711 96.2478C47.4511 95.9878 47.1111 95.6338 46.8511 95.1858C46.5951 94.7378 46.4671 94.2338 46.4671 93.6738C46.4671 93.6578 46.4671 93.6438 46.4671 93.6318C46.4671 93.6158 46.4671 93.6018 46.4671 93.5898L47.2471 93.5718C47.2471 93.5798 47.2471 93.5898 47.2471 93.6018C47.2471 93.6138 47.2471 93.6238 47.2471 93.6318C47.2471 93.9438 47.3251 94.2218 47.4811 94.4658C47.6371 94.7058 47.8391 94.8958 48.0871 95.0358C48.3391 95.1718 48.6071 95.2398 48.8911 95.2398C49.3511 95.2398 49.7431 95.0818 50.0671 94.7658C50.3911 94.4498 50.5531 93.9598 50.5531 93.2958C50.5531 92.6278 50.3911 92.1398 50.0671 91.8318C49.7471 91.5198 49.3551 91.3638 48.8911 91.3638C48.6111 91.3638 48.3451 91.4318 48.0931 91.5678C47.8451 91.6998 47.6411 91.8838 47.4811 92.1198C47.3251 92.3558 47.2471 92.6318 47.2471 92.9478L46.4671 92.9118C46.4671 92.3478 46.5951 91.8478 46.8511 91.4118C47.1111 90.9758 47.4511 90.6358 47.8711 90.3918C48.2951 90.1438 48.7551 90.0198 49.2511 90.0198C49.7671 90.0198 50.2471 90.1478 50.6911 90.4038C51.1391 90.6558 51.4991 91.0258 51.7711 91.5138C52.0471 91.9978 52.1851 92.5918 52.1851 93.2958C52.1851 94.0198 52.0511 94.6298 51.7831 95.1258C51.5151 95.6218 51.1591 95.9978 50.7151 96.2538C50.2711 96.5058 49.7831 96.6318 49.2511 96.6318ZM45.6631 96.4998V87.1218H47.2471V96.4998H45.6631ZM55.1352 87.1218V96.4998H53.5812V87.1218H55.1352ZM57.337 93.8238V92.7018H61.795L61.615 93.0018C61.615 92.9778 61.615 92.9518 61.615 92.9238C61.615 92.8918 61.615 92.8658 61.615 92.8458C61.615 92.5698 61.553 92.3118 61.429 92.0718C61.305 91.8278 61.117 91.6318 60.865 91.4838C60.613 91.3318 60.293 91.2558 59.905 91.2558C59.521 91.2558 59.187 91.3378 58.903 91.5018C58.623 91.6618 58.405 91.8938 58.249 92.1978C58.097 92.5018 58.021 92.8658 58.021 93.2898C58.021 93.7258 58.095 94.1018 58.243 94.4178C58.391 94.7298 58.607 94.9698 58.891 95.1378C59.179 95.3018 59.529 95.3838 59.941 95.3838C60.221 95.3838 60.463 95.3578 60.667 95.3058C60.871 95.2538 61.037 95.1838 61.165 95.0958C61.297 95.0038 61.395 94.9058 61.459 94.8018C61.527 94.6978 61.567 94.5938 61.579 94.4898H63.151C63.127 94.7578 63.037 95.0198 62.881 95.2758C62.729 95.5278 62.515 95.7578 62.239 95.9658C61.963 96.1698 61.627 96.3338 61.231 96.4578C60.839 96.5778 60.391 96.6378 59.887 96.6378C59.203 96.6378 58.605 96.4978 58.093 96.2178C57.581 95.9378 57.181 95.5478 56.893 95.0478C56.609 94.5478 56.467 93.9758 56.467 93.3318C56.467 92.6718 56.611 92.0938 56.899 91.5978C57.191 91.1018 57.595 90.7158 58.111 90.4398C58.627 90.1598 59.219 90.0198 59.887 90.0198C60.575 90.0198 61.169 90.1598 61.669 90.4398C62.173 90.7198 62.561 91.1098 62.833 91.6098C63.105 92.1058 63.241 92.6838 63.241 93.3438C63.241 93.4278 63.239 93.5178 63.235 93.6138C63.231 93.7098 63.225 93.7798 63.217 93.8238H57.337Z" fill="#1A1A1A"/>
</svg>
