<svg width="146" height="115" viewBox="0 0 146 115" fill="none" xmlns="http://www.w3.org/2000/svg">
<path fill-rule="evenodd" clip-rule="evenodd" d="M30.3773 48.2649C30.1173 48.2649 29.8989 48.4833 29.8989 48.7433V49.5441C29.8989 49.8041 30.1173 50.0225 30.3773 50.0225H35.9098C36.1698 50.0225 36.3882 49.8041 36.3882 49.5441V48.7433C36.3882 48.4833 36.1698 48.2649 35.9098 48.2649H30.3773ZM24.564 63.2506C25.1463 62.8346 25.6143 62.2731 25.9575 61.5659C26.3007 60.8587 26.4671 60.1412 26.4775 59.3924C26.4775 58.4461 26.2175 57.6141 25.6871 56.9173C25.1983 56.283 24.5224 55.815 23.6592 55.5134C23.576 55.4926 23.5656 55.3678 23.6488 55.3262C24.2312 55.0038 24.7096 54.567 25.0735 53.9951C25.4791 53.3607 25.6871 52.6535 25.6871 51.884C25.6871 51.1768 25.5207 50.5424 25.1879 49.9705C24.8552 49.3985 24.4496 48.9409 23.9504 48.5977C23.4512 48.2545 22.8896 48.0258 22.2657 47.9218C21.6313 47.8074 20.685 47.7554 19.905 47.7554H13.5613C12.9997 47.7554 12.9581 47.797 12.9581 47.8594V64.041C12.9581 64.093 12.9997 64.145 13.5613 64.145H18.9482C20.529 64.1242 21.8393 64.093 22.3801 64.0306C23.2432 63.9266 23.9712 63.677 24.564 63.2506ZM38.8321 58.758C38.9049 58.758 38.9569 58.6956 38.9569 58.6332C38.9881 55.4406 38.4577 54.463 37.4177 53.2983C36.3466 52.1128 34.8907 51.52 33.0396 51.52C31.3964 51.52 30.0341 52.0816 28.9525 53.2151C27.8814 54.3487 27.3406 55.919 27.3406 57.9157C27.3406 59.59 27.7462 60.9731 28.5678 62.0755C29.6077 63.4482 31.2092 64.1346 33.3723 64.1346C34.7347 64.1346 35.8786 63.833 36.7834 63.2194C37.6569 62.637 38.6969 61.2643 38.7385 60.2348C38.7489 60.1516 38.7177 60.0788 38.6449 60.0684L35.6082 60.0372C35.5458 60.0268 35.4834 60.0684 35.473 60.1204C35.161 61.2851 34.0899 61.4931 33.3931 61.4931C32.634 61.4931 32.01 61.3475 31.5004 60.8171C31.0116 60.318 30.7517 59.7668 30.7101 58.8828C30.7101 58.8204 30.7621 58.758 30.8349 58.758H38.8321ZM21.7351 57.2397C21.2879 57.0837 20.3312 57.0005 18.8441 57.0005H16.8162C16.7538 57.0005 16.7122 57.0525 16.7122 57.1045V61.2747C16.7122 61.3371 16.7538 61.3787 16.8162 61.3787H19.2288C20.404 61.3787 21.1424 61.3475 21.4647 61.2747C21.9535 61.1811 22.3383 60.9627 22.6503 60.6195C22.9519 60.2763 23.1079 59.8083 23.1079 59.226C23.1079 58.7372 22.9935 58.3212 22.7543 57.978C22.5151 57.6452 22.1823 57.3957 21.7351 57.2397ZM31.4587 54.7334C31.9267 54.2238 32.5195 53.9742 33.2371 53.9742C33.913 53.9742 34.4746 54.2134 34.953 54.6918C35.4002 55.1493 35.6913 55.7525 35.6913 56.3661C35.6913 56.4285 35.6393 56.4909 35.5665 56.4909H30.8972C30.8244 56.4909 30.7724 56.4285 30.7724 56.3661C30.814 55.6901 31.0116 55.2221 31.4587 54.7334ZM16.816 54.2758H18.3447C19.6134 54.2758 20.4038 54.255 20.7158 54.2238C21.2773 54.1614 21.7141 53.9639 22.0261 53.6415C22.3485 53.3191 22.5045 52.8927 22.5045 52.3623C22.5045 51.8528 22.3693 51.4472 22.0885 51.1248C21.8181 50.8128 21.4021 50.6152 20.8614 50.5528C20.539 50.5112 19.6134 50.5008 18.0743 50.5008H16.8056C16.7432 50.5008 16.7016 50.5528 16.7016 50.6048V54.1822C16.712 54.2238 16.764 54.2758 16.816 54.2758Z" fill="#1A1A1A"/>
<path d="M17.0344 87.6498C17.6264 87.6498 18.1184 87.7338 18.5104 87.9018C18.9024 88.0658 19.1964 88.3058 19.3924 88.6218C19.5924 88.9378 19.6924 89.3238 19.6924 89.7798C19.6924 90.2198 19.6024 90.5938 19.4224 90.9018C19.2464 91.2058 19.0224 91.4398 18.7504 91.6038C18.4784 91.7678 18.1984 91.8598 17.9104 91.8798C18.2144 91.8878 18.5184 91.9618 18.8224 92.1018C19.1304 92.2418 19.3864 92.4658 19.5904 92.7738C19.7944 93.0818 19.8964 93.4958 19.8964 94.0158C19.8964 94.5078 19.7984 94.9418 19.6024 95.3178C19.4064 95.6898 19.0944 95.9798 18.6664 96.1878C18.2424 96.3958 17.6884 96.4998 17.0044 96.4998H13.7224V87.6498H17.0344ZM15.2344 91.7598L14.7124 91.2978H16.4944C17.0224 91.2978 17.4224 91.1878 17.6944 90.9678C17.9704 90.7438 18.1084 90.4338 18.1084 90.0378C18.1084 89.7698 18.0504 89.5538 17.9344 89.3898C17.8224 89.2258 17.6544 89.1058 17.4304 89.0298C17.2104 88.9498 16.9444 88.9098 16.6324 88.9098H14.5204L15.2344 88.1238V91.7598ZM16.6924 95.2398C17.2044 95.2398 17.5984 95.1238 17.8744 94.8918C18.1504 94.6598 18.2884 94.3358 18.2884 93.9198C18.2884 93.6798 18.2444 93.4738 18.1564 93.3018C18.0724 93.1258 17.9524 92.9838 17.7964 92.8758C17.6444 92.7638 17.4644 92.6818 17.2564 92.6298C17.0524 92.5778 16.8284 92.5518 16.5844 92.5518H14.7124L15.2344 92.0838V96.0258L14.5204 95.2398H16.6924ZM21.887 93.8238V92.7018H26.345L26.165 93.0018C26.165 92.9778 26.165 92.9518 26.165 92.9238C26.165 92.8918 26.165 92.8658 26.165 92.8458C26.165 92.5698 26.103 92.3118 25.979 92.0718C25.855 91.8278 25.667 91.6318 25.415 91.4838C25.163 91.3318 24.843 91.2558 24.455 91.2558C24.071 91.2558 23.737 91.3378 23.453 91.5018C23.173 91.6618 22.955 91.8938 22.799 92.1978C22.647 92.5018 22.571 92.8658 22.571 93.2898C22.571 93.7258 22.645 94.1018 22.793 94.4178C22.941 94.7298 23.157 94.9698 23.441 95.1378C23.729 95.3018 24.079 95.3838 24.491 95.3838C24.771 95.3838 25.013 95.3578 25.217 95.3058C25.421 95.2538 25.587 95.1838 25.715 95.0958C25.847 95.0038 25.945 94.9058 26.009 94.8018C26.077 94.6978 26.117 94.5938 26.129 94.4898H27.701C27.677 94.7578 27.587 95.0198 27.431 95.2758C27.279 95.5278 27.065 95.7578 26.789 95.9658C26.513 96.1698 26.177 96.3338 25.781 96.4578C25.389 96.5778 24.941 96.6378 24.437 96.6378C23.753 96.6378 23.155 96.4978 22.643 96.2178C22.131 95.9378 21.731 95.5478 21.443 95.0478C21.159 94.5478 21.017 93.9758 21.017 93.3318C21.017 92.6718 21.161 92.0938 21.449 91.5978C21.741 91.1018 22.145 90.7158 22.661 90.4398C23.177 90.1598 23.769 90.0198 24.437 90.0198C25.125 90.0198 25.719 90.1598 26.219 90.4398C26.723 90.7198 27.111 91.1098 27.383 91.6098C27.655 92.1058 27.791 92.6838 27.791 93.3438C27.791 93.4278 27.789 93.5178 27.785 93.6138C27.781 93.7098 27.775 93.7798 27.767 93.8238H21.887ZM33.6039 96.4998V94.2018C33.6039 94.1058 33.6039 93.9858 33.6039 93.8418C33.6039 93.6978 33.6039 93.5518 33.6039 93.4038C33.6039 93.2558 33.6039 93.1338 33.6039 93.0378C33.6039 92.5098 33.4999 92.1058 33.2919 91.8258C33.0879 91.5418 32.7379 91.3998 32.2419 91.3998C31.9099 91.3998 31.6259 91.4658 31.3899 91.5978C31.1579 91.7258 30.9799 91.9058 30.8559 92.1378C30.7319 92.3698 30.6699 92.6378 30.6699 92.9418L30.0939 92.6358C30.0939 92.1278 30.2079 91.6778 30.4359 91.2858C30.6679 90.8898 30.9879 90.5798 31.3959 90.3558C31.8039 90.1318 32.2719 90.0198 32.7999 90.0198C33.5719 90.0198 34.1619 90.2498 34.5699 90.7098C34.9779 91.1658 35.1819 91.8018 35.1819 92.6178C35.1819 92.8258 35.1819 93.0738 35.1819 93.3618C35.1819 93.6458 35.1819 93.9658 35.1819 94.3218V96.4998H33.6039ZM29.0919 96.4998V87.1218H30.6699V96.4998H29.0919ZM38.8931 96.6318C38.4171 96.6318 37.9991 96.5578 37.6391 96.4098C37.2791 96.2578 36.9971 96.0398 36.7931 95.7558C36.5891 95.4718 36.4871 95.1298 36.4871 94.7298C36.4871 94.2938 36.6051 93.9358 36.8411 93.6558C37.0811 93.3718 37.4031 93.1538 37.8071 93.0018C38.2111 92.8458 38.6591 92.7458 39.1511 92.7018C39.8791 92.6298 40.3871 92.5618 40.6751 92.4978C40.9671 92.4298 41.1131 92.3218 41.1131 92.1738C41.1131 92.1698 41.1131 92.1678 41.1131 92.1678C41.1131 92.1638 41.1131 92.1618 41.1131 92.1618C41.1131 91.8818 40.9871 91.6658 40.7351 91.5138C40.4831 91.3618 40.1271 91.2858 39.6671 91.2858C39.1831 91.2858 38.8111 91.3718 38.5511 91.5438C38.2951 91.7118 38.1671 91.9798 38.1671 92.3478H36.6071C36.6071 91.8478 36.7391 91.4258 37.0031 91.0818C37.2711 90.7338 37.6371 90.4698 38.1011 90.2898C38.5651 90.1098 39.0911 90.0198 39.6791 90.0198C40.2271 90.0198 40.7291 90.1018 41.1851 90.2658C41.6411 90.4298 42.0071 90.6778 42.2831 91.0098C42.5591 91.3418 42.6971 91.7558 42.6971 92.2518C42.6971 92.3358 42.6971 92.4198 42.6971 92.5038C42.6971 92.5878 42.6971 92.6718 42.6971 92.7558V95.1558C42.6971 95.3078 42.7011 95.4578 42.7091 95.6058C42.7211 95.7498 42.7431 95.8798 42.7751 95.9958C42.8151 96.1238 42.8631 96.2318 42.9191 96.3198C42.9751 96.4078 43.0191 96.4678 43.0511 96.4998H41.4911C41.4631 96.4718 41.4231 96.4178 41.3711 96.3378C41.3231 96.2538 41.2791 96.1578 41.2391 96.0498C41.1991 95.9298 41.1691 95.8018 41.1491 95.6658C41.1291 95.5258 41.1191 95.3718 41.1191 95.2038L41.4311 95.4198C41.3111 95.6638 41.1271 95.8778 40.8791 96.0618C40.6351 96.2418 40.3431 96.3818 40.0031 96.4818C39.6631 96.5818 39.2931 96.6318 38.8931 96.6318ZM39.2771 95.3898C39.6051 95.3898 39.9091 95.3338 40.1891 95.2218C40.4691 95.1098 40.6951 94.9378 40.8671 94.7058C41.0391 94.4698 41.1251 94.1678 41.1251 93.7998V92.9478L41.5091 93.3798C41.2531 93.4758 40.9451 93.5558 40.5851 93.6198C40.2251 93.6798 39.8611 93.7278 39.4931 93.7638C39.0211 93.8078 38.6651 93.8898 38.4251 94.0098C38.1891 94.1298 38.0711 94.3258 38.0711 94.5978C38.0711 94.8618 38.1711 95.0598 38.3711 95.1918C38.5711 95.3238 38.8731 95.3898 39.2771 95.3898ZM48.6682 96.4998V93.6738C48.6682 93.5138 48.6682 93.3738 48.6682 93.2538C48.6682 93.1298 48.6682 93.0178 48.6682 92.9178C48.6682 92.6298 48.6262 92.3718 48.5422 92.1438C48.4622 91.9118 48.3222 91.7298 48.1222 91.5978C47.9262 91.4658 47.6542 91.3998 47.3062 91.3998C47.0022 91.3998 46.7322 91.4738 46.4962 91.6218C46.2602 91.7658 46.0742 91.9658 45.9382 92.2218C45.8062 92.4738 45.7402 92.7658 45.7402 93.0978L45.2062 92.7678C45.2062 92.2358 45.3262 91.7638 45.5662 91.3518C45.8102 90.9358 46.1362 90.6098 46.5442 90.3738C46.9522 90.1378 47.4042 90.0198 47.9002 90.0198C48.4122 90.0198 48.8422 90.1198 49.1902 90.3198C49.5422 90.5198 49.8062 90.8038 49.9822 91.1718C50.1622 91.5398 50.2522 91.9718 50.2522 92.4678C50.2522 92.6598 50.2522 92.8758 50.2522 93.1158C50.2522 93.3558 50.2522 93.5918 50.2522 93.8238V96.4998H48.6682ZM44.1622 96.4998V90.1278H45.7402V96.4998H44.1622ZM54.9177 96.6318C54.2457 96.6318 53.6517 96.4938 53.1357 96.2178C52.6197 95.9418 52.2157 95.5538 51.9237 95.0538C51.6317 94.5538 51.4857 93.9678 51.4857 93.2958C51.4857 92.6278 51.6317 92.0478 51.9237 91.5558C52.2157 91.0638 52.6197 90.6858 53.1357 90.4218C53.6517 90.1538 54.2457 90.0198 54.9177 90.0198C55.4217 90.0198 55.8677 90.0938 56.2557 90.2418C56.6437 90.3898 56.9697 90.5878 57.2337 90.8358C57.5017 91.0798 57.7057 91.3498 57.8457 91.6458C57.9857 91.9378 58.0557 92.2298 58.0557 92.5218C58.0557 92.5298 58.0557 92.5378 58.0557 92.5458C58.0557 92.5538 58.0557 92.5618 58.0557 92.5698H56.4897C56.4897 92.5498 56.4877 92.5278 56.4837 92.5038C56.4797 92.4798 56.4757 92.4558 56.4717 92.4318C56.4397 92.2278 56.3577 92.0438 56.2257 91.8798C56.0937 91.7118 55.9177 91.5778 55.6977 91.4778C55.4777 91.3778 55.2117 91.3278 54.8997 91.3278C54.5677 91.3278 54.2637 91.4018 53.9877 91.5498C53.7157 91.6938 53.4977 91.9118 53.3337 92.2038C53.1737 92.4958 53.0937 92.8598 53.0937 93.2958C53.0937 93.7278 53.1737 94.0958 53.3337 94.3998C53.4937 94.6998 53.7097 94.9298 53.9817 95.0898C54.2577 95.2458 54.5637 95.3238 54.8997 95.3238C55.2557 95.3238 55.5457 95.2698 55.7697 95.1618C55.9977 95.0498 56.1697 94.9018 56.2857 94.7178C56.4017 94.5298 56.4677 94.3258 56.4837 94.1058H58.0557C58.0557 94.4018 57.9877 94.6998 57.8517 94.9998C57.7157 95.2958 57.5157 95.5678 57.2517 95.8158C56.9877 96.0638 56.6597 96.2618 56.2677 96.4098C55.8797 96.5578 55.4297 96.6318 54.9177 96.6318ZM59.9495 93.8238V92.7018H64.4075L64.2275 93.0018C64.2275 92.9778 64.2275 92.9518 64.2275 92.9238C64.2275 92.8918 64.2275 92.8658 64.2275 92.8458C64.2275 92.5698 64.1655 92.3118 64.0415 92.0718C63.9175 91.8278 63.7295 91.6318 63.4775 91.4838C63.2255 91.3318 62.9055 91.2558 62.5175 91.2558C62.1335 91.2558 61.7995 91.3378 61.5155 91.5018C61.2355 91.6618 61.0175 91.8938 60.8615 92.1978C60.7095 92.5018 60.6335 92.8658 60.6335 93.2898C60.6335 93.7258 60.7075 94.1018 60.8555 94.4178C61.0035 94.7298 61.2195 94.9698 61.5035 95.1378C61.7915 95.3018 62.1415 95.3838 62.5535 95.3838C62.8335 95.3838 63.0755 95.3578 63.2795 95.3058C63.4835 95.2538 63.6495 95.1838 63.7775 95.0958C63.9095 95.0038 64.0075 94.9058 64.0715 94.8018C64.1395 94.6978 64.1795 94.5938 64.1915 94.4898H65.7635C65.7395 94.7578 65.6495 95.0198 65.4935 95.2758C65.3415 95.5278 65.1275 95.7578 64.8515 95.9658C64.5755 96.1698 64.2395 96.3338 63.8435 96.4578C63.4515 96.5778 63.0035 96.6378 62.4995 96.6378C61.8155 96.6378 61.2175 96.4978 60.7055 96.2178C60.1935 95.9378 59.7935 95.5478 59.5055 95.0478C59.2215 94.5478 59.0795 93.9758 59.0795 93.3318C59.0795 92.6718 59.2235 92.0938 59.5115 91.5978C59.8035 91.1018 60.2075 90.7158 60.7235 90.4398C61.2395 90.1598 61.8315 90.0198 62.4995 90.0198C63.1875 90.0198 63.7815 90.1598 64.2815 90.4398C64.7855 90.7198 65.1735 91.1098 65.4455 91.6098C65.7175 92.1058 65.8535 92.6838 65.8535 93.3438C65.8535 93.4278 65.8515 93.5178 65.8475 93.6138C65.8435 93.7098 65.8375 93.7798 65.8295 93.8238H59.9495Z" fill="#1A1A1A"/>
</svg>
