<svg width="53" height="53" viewBox="0 0 53 53" fill="none" xmlns="http://www.w3.org/2000/svg">
<path fill-rule="evenodd" clip-rule="evenodd" d="M26.7502 0.5C41.2482 0.5 53.0002 12.252 53.0002 26.75C53.0002 41.248 41.2482 53 26.7502 53C12.2522 53 0.500244 41.248 0.500244 26.75C0.500244 12.252 12.2522 0.5 26.7502 0.5Z" fill="#1A1A1A"/>
<path fill-rule="evenodd" clip-rule="evenodd" d="M30.7409 25.8437C30.3912 25.0367 30.0272 24.2317 29.6396 23.435C32.9516 22.0005 35.6135 20.0522 37.5966 17.5821C39.5315 19.8677 40.7456 22.7706 40.925 25.9493C37.2326 25.3443 33.8365 25.3105 30.7409 25.8437ZM34.6404 38.5657C34.0119 35.1921 33.0911 31.8945 31.8872 28.6768C34.5768 28.2964 37.5371 28.3948 40.7753 28.9578C40.1498 32.9537 37.8694 36.4042 34.6404 38.5657ZM18.026 37.9504C20.8499 33.5208 24.4542 30.6384 28.9208 29.3074C30.2507 32.7773 31.2289 36.3478 31.8514 40.0043C27.1981 41.8028 21.9707 41.0297 18.026 37.9504ZM12.5545 26.384C18.0722 26.3758 22.833 25.7421 26.8208 24.4871C27.1551 25.1679 27.475 25.8519 27.7816 26.5409C22.9366 28.0544 18.9427 31.1593 15.8276 35.833C13.585 33.1414 12.4694 29.8775 12.5545 26.384ZM20.3372 14.0804C22.2465 16.5792 23.9374 19.155 25.4088 21.7975C21.9225 22.8239 17.7645 23.3509 12.9544 23.3837C13.948 19.3181 16.6858 15.9374 20.3372 14.0804ZM35.4156 15.5067C33.6889 17.7349 31.3038 19.4965 28.2645 20.7834C26.8085 18.1153 25.1443 15.5128 23.2637 12.9863C27.5211 11.9014 31.9231 12.8099 35.4156 15.5067ZM26.75 9.54199C17.2467 9.54199 9.54193 17.2468 9.54193 26.7501C9.54193 36.2534 17.2467 43.9582 26.75 43.9582C36.2534 43.9582 43.9581 36.2534 43.9581 26.7501C43.9581 17.2468 36.2534 9.54199 26.75 9.54199Z" fill="#F7FFFF"/>
</svg>
