<svg width="53" height="53" viewBox="0 0 53 53" fill="none" xmlns="http://www.w3.org/2000/svg">
<path d="M26.2502 0.5C11.7761 0.5 0.000244141 12.2758 0.000244141 26.75C0.000244141 41.2231 11.7761 53 26.2502 53C40.7234 53 52.5002 41.2231 52.5002 26.75C52.5002 12.2758 40.7255 0.5 26.2502 0.5ZM32.7784 27.6741H28.5077V42.8959H22.1794C22.1794 42.8959 22.1794 34.5787 22.1794 27.6741H19.1712V22.2943H22.1794V18.8145C22.1794 16.3223 23.3637 12.4281 28.5659 12.4281L33.2552 12.446V17.6683C33.2552 17.6683 30.4057 17.6683 29.8516 17.6683C29.2976 17.6683 28.5098 17.9454 28.5098 19.1338V22.2953H33.3314L32.7784 27.6741Z" fill="#1A1A1A"/>
</svg>
