<svg xmlns="http://www.w3.org/2000/svg" xmlns:xlink="http://www.w3.org/1999/xlink" width="214.287" height="67.15" viewBox="0 0 214.287 67.15">
  <defs>
    <linearGradient id="linear-gradient" x1="0.5" x2="0.5" y2="1" gradientUnits="objectBoundingBox">
      <stop offset="0" stop-color="#04baeb"/>
      <stop offset="1" stop-color="#0bc8bc"/>
    </linearGradient>
  </defs>
  <g id="Group_1812" data-name="Group 1812" transform="translate(-36 -27)">
    <g id="layer1" transform="translate(36 27)">
      <path id="path826" d="M68.106,212.116l-.223-5.611-4.511-.292a24.909,24.909,0,0,1-4.787-.574c-.151-.155.354-1.6,1.124-3.21,2.429-5.082,4.472-5.618,21.4-5.62,14.427,0,14.768-.038,16.37-1.782A5.586,5.586,0,0,0,97.7,187.5c-1.185-1.5-2.284-1.836-6.774-2.1-4.695-.271-5.359-.494-5.359-1.8,0-4.05,4.986-9.463,9.517-10.331,2.691-.516,2.7-.527,2.322-3.935-.881-7.988-9.827-11.955-15.917-7.059-3.733,3-4.2,5-4.2,17.951v11.961H68.26V178.882c0-12.763.08-13.474,1.94-17.29a19.088,19.088,0,0,1,25.537-9.13c6.41,3.051,10.2,8.617,11.269,16.535l.533,3.964h-4.963c-4.646,0-4.963.111-4.963,1.732,0,1.271.913,2.227,3.43,3.592a15.937,15.937,0,0,1,7.447,10.532c.691,3.4-.856,8.886-3.391,12.029-3.548,4.4-5.913,5.115-17.427,5.276l-10.213.142-.4,3.085c-.462,3.517-3.487,7.077-6.691,7.872l-2.035.505ZM87.227,170.5c-2.673-2.732.429-6.962,3.5-4.766,1.921,1.375,2.063,2.821.439,4.48-1.414,1.445-2.709,1.539-3.935.286Z" transform="translate(-58.559 -150.576)" fill="url(#linear-gradient)"/>
    </g>
    <text id="Little_Bird" data-name="Little Bird" transform="translate(106.287 73)" fill="#fff" font-size="41" font-family="BebasNeueBold, Bebas Neue"><tspan x="0" y="0">Little Bird</tspan></text>
  </g>
</svg>
