<svg xmlns="http://www.w3.org/2000/svg" width="837.188" height="184.367" viewBox="0 0 837.188 184.367">
  <g id="Group_2520" data-name="Group 2520" transform="translate(4464.222 443)">
    <path id="Subtraction_14" data-name="Subtraction 14" d="M771.167,179.778a94.776,94.776,0,0,1-32.106-5.277,71.844,71.844,0,0,1-24.583-14.656,64.337,64.337,0,0,1-15.727-22.274,71.386,71.386,0,0,1-5.539-28.131A72.427,72.427,0,0,1,698.744,81.2a66.2,66.2,0,0,1,15.291-22.262,69.307,69.307,0,0,1,23.1-14.6A82.686,82.686,0,0,1,794.124,44a65.818,65.818,0,0,1,22.56,14.057,63.878,63.878,0,0,1,15.038,22.294,78.366,78.366,0,0,1,5.467,29.6c0,2.162-.252,4.919-.5,7.585-.1,1.09-.193,2.12-.268,3.08H733.078c3.845,17.171,18.463,27.424,39.105,27.424,14.052,0,24.625-4.072,34.28-13.2l21.076,22.853a60.764,60.764,0,0,1-23.711,16.473C794.365,177.888,783.376,179.778,771.167,179.778ZM766.342,69.067c-18.034,0-30.975,10.9-33.772,28.44h67.29C797.066,80.231,783.91,69.067,766.342,69.067ZM243.513,179.778a94.774,94.774,0,0,1-32.1-5.277,71.845,71.845,0,0,1-24.583-14.656A64.338,64.338,0,0,1,171.1,137.571a71.385,71.385,0,0,1-5.539-28.131A72.425,72.425,0,0,1,171.09,81.2a66.195,66.195,0,0,1,15.291-22.262,69.306,69.306,0,0,1,23.1-14.6A82.686,82.686,0,0,1,266.47,44a65.815,65.815,0,0,1,22.559,14.057,63.875,63.875,0,0,1,15.037,22.294,78.368,78.368,0,0,1,5.467,29.6c0,2.157-.25,4.906-.493,7.565-.1,1.1-.194,2.131-.269,3.1H205.425c3.843,17.171,18.461,27.424,39.1,27.424,14.054,0,24.626-4.072,34.28-13.2l21.076,22.853a60.754,60.754,0,0,1-23.71,16.473C266.711,177.888,255.722,179.778,243.513,179.778ZM238.689,69.067c-18.035,0-30.975,10.9-33.772,28.44h67.29C269.413,80.231,256.257,69.067,238.689,69.067ZM672.138,177.748l0,0h-38.6l-.221-93.116a130.955,130.955,0,0,0,15.826-9.489,127.05,127.05,0,0,0,22.641-20.265l.351,122.87Zm-631,0h0L0,177.746V0H76.939c47.614,0,77.193,24.714,77.193,64.5,0,13.135-3.236,24.689-9.618,34.343-6.259,9.467-15.325,16.793-26.947,21.774l39.865,57.13-44.182,0L78.97,128.231H41.136v49.517Zm0-144.23V95.475H74.654c24.4,0,37.834-11,37.834-30.978S99.052,33.518,74.654,33.518Zm362.1,144.229H362.349L304.963,41.136h40.882l37.834,92.937,39.1-92.937h38.089L403.232,177.747Zm107.157,0h0v0l-38.594,0V53.55A126.866,126.866,0,0,0,495.58,75.141a130.983,130.983,0,0,0,14.808,8.967Zm70.59-18.79H562.442L519.527,88.408c3.815,1.619,7.772,3.083,11.763,4.349a135.7,135.7,0,0,0,41.072,6.311,135.686,135.686,0,0,0,41.071-6.311c2.972-.942,5.943-2,8.831-3.145l-41.287,69.345ZM582.457,68l0,0,.953-.993c28.905-3.237,55.27-19.231,70.526-42.784h2.8c-1.206,1.852-2.5,3.681-3.833,5.439A95.532,95.532,0,0,1,631.6,50.083a100.786,100.786,0,0,1-27.407,13.511A104.552,104.552,0,0,1,582.461,68Zm-21.6-.143h0a104.466,104.466,0,0,1-20.317-4.263A100.787,100.787,0,0,1,513.13,50.083,95.575,95.575,0,0,1,491.816,29.66c-1.352-1.78-2.642-3.609-3.833-5.439h2.8c14.97,23.113,40.819,39.046,69.147,42.619l.922,1.015Z" transform="translate(-4464.222 -438.411)" fill="#112337"/>
    <path id="Subtraction_12" data-name="Subtraction 12" d="M108.641,74.847a120.431,120.431,0,0,1-36.449-5.6A116.09,116.09,0,0,1,40.634,53.689a110.838,110.838,0,0,1-24.715-23.7A103.9,103.9,0,0,1,0,0H35.907c13.219,26.365,41.769,43.4,72.734,43.4S168.155,26.365,181.375,0h35.906a103.9,103.9,0,0,1-15.918,29.994,110.836,110.836,0,0,1-24.715,23.7A116.086,116.086,0,0,1,145.09,69.252,120.429,120.429,0,0,1,108.641,74.847Z" transform="translate(-4000.5 -426.109)" fill="#fc1170"/>
    <g id="Group_2334" data-name="Group 2334" transform="translate(-3934.992 -443)">
      <ellipse id="Ellipse_22" data-name="Ellipse 22" cx="16.891" cy="16.891" rx="16.891" ry="16.891" fill="#fc1170"/>
      <ellipse id="Ellipse_23" data-name="Ellipse 23" cx="16.891" cy="16.891" rx="16.891" ry="16.891" transform="translate(52.483)" fill="#fc1170"/>
    </g>
    <text id="TM" transform="translate(-3640.089 -394.763)" fill="#112337" font-size="16" font-family="Montserrat-SemiBold, Montserrat" font-weight="600"><tspan x="-12.456" y="0">TM</tspan></text>
  </g>
</svg>
