<svg width="125" height="30" viewBox="0 0 125 30" fill="none" xmlns="http://www.w3.org/2000/svg">
<path fill-rule="evenodd" clip-rule="evenodd" d="M56.9332 6.34943C56.0525 6.34943 55.2997 6.05114 54.6747 5.45455C54.0497 4.82955 53.7372 4.0767 53.7372 3.19602C53.7372 2.31534 54.0497 1.5625 54.6747 0.937501C55.2997 0.3125 56.0525 0 56.9332 0C57.8139 0 58.5525 0.3125 59.1491 0.937501C59.7741 1.5625 60.0866 2.31534 60.0866 3.19602C60.0866 4.0767 59.7741 4.82955 59.1491 5.45455C58.5525 6.05114 57.8139 6.34943 56.9332 6.34943ZM60.044 30H53.7798V8.69318H60.044V30ZM44.9148 30H51.1791V0.170455H44.9148V30ZM9.20996 30C6.36905 30 4.16735 29.2614 2.60485 27.7841C1.07076 26.3068 0.303711 24.3324 0.303711 21.8608H6.56791C6.56791 22.7699 6.80939 23.3381 7.29235 23.5653C7.7753 23.7926 8.41451 23.9062 9.20996 23.9062C10.4031 23.9062 11.2128 23.8636 11.6389 23.7784C12.0651 23.6932 12.2781 23.4659 12.2781 23.0966C12.2781 22.6705 12.1645 22.3722 11.9372 22.2017C11.7384 22.0028 11.2696 21.8466 10.531 21.733L7.42019 21.179C5.77246 20.8949 4.45144 20.5682 3.45712 20.1989C2.4628 19.8011 1.68155 19.2472 1.11337 18.5369C0.573597 17.8267 0.303711 16.875 0.303711 15.6818C0.303711 14.2898 0.673029 13.0682 1.41167 12.017C2.1503 10.9659 3.17303 10.1562 4.47985 9.58807C5.81507 8.99148 7.32076 8.69318 8.99689 8.69318C11.9514 8.69318 14.281 9.375 15.9855 10.7386C17.6901 12.1023 18.5423 14.1051 18.5423 16.7472H12.2781C12.2781 15.8665 12.0225 15.3267 11.5111 15.1278C10.9997 14.9006 10.2327 14.7869 9.20996 14.7869C8.18723 14.7869 7.49121 14.8437 7.12189 14.9574C6.75257 15.0426 6.56791 15.2841 6.56791 15.6818C6.56791 15.9659 6.62473 16.179 6.73837 16.321C6.88041 16.4631 7.10769 16.5625 7.42019 16.6193L10.531 17.2159C12.4628 17.5852 13.9827 17.9972 15.0906 18.4517C16.227 18.8778 17.0793 19.4602 17.6475 20.1989C18.244 20.9375 18.5423 21.9034 18.5423 23.0966C18.5423 25.2557 17.6759 26.946 15.9429 28.1676C14.21 29.3892 11.9656 30 9.20996 30ZM31.5189 30C29.5302 30 27.712 29.5312 26.0643 28.5938C24.4166 27.6278 23.1098 26.3352 22.1439 24.7159C21.178 23.0682 20.695 21.2784 20.695 19.3466C20.695 17.4148 21.178 15.6392 22.1439 14.0199C23.1098 12.3722 24.4166 11.0795 26.0643 10.142C27.712 9.17614 29.5302 8.69318 31.5189 8.69318C33.4791 8.69318 35.2831 9.17614 36.9308 10.142C38.6069 11.0795 39.9279 12.3722 40.8939 14.0199C41.8598 15.6392 42.3427 17.4148 42.3427 19.3466C42.3427 21.2784 41.8598 23.0682 40.8939 24.7159C39.9279 26.3352 38.6069 27.6278 36.9308 28.5938C35.2831 29.5312 33.4791 30 31.5189 30ZM31.5189 23.821C32.8257 23.821 33.9052 23.3949 34.7575 22.5426C35.6382 21.6619 36.0785 20.5966 36.0785 19.3466C36.0785 18.0966 35.6382 17.0455 34.7575 16.1932C33.9052 15.3125 32.8257 14.8722 31.5189 14.8722C30.212 14.8722 29.1183 15.2983 28.2376 16.1506C27.3853 17.0028 26.9592 18.0682 26.9592 19.3466C26.9592 20.625 27.3853 21.6903 28.2376 22.5426C29.1183 23.3949 30.212 23.821 31.5189 23.821ZM84.2905 0.170455H78.0263V9.6733C76.6343 9.01989 75.1144 8.69318 73.4666 8.69318C71.5064 8.69318 69.6882 9.17614 68.0121 10.142C66.3644 11.0795 65.0576 12.3722 64.0916 14.0199C63.1257 15.6392 62.6428 17.4148 62.6428 19.3466C62.6428 21.2784 63.1257 23.0682 64.0916 24.7159C65.0576 26.3352 66.3644 27.6278 68.0121 28.5938C69.6882 29.5312 71.5064 30 73.4666 30C75.1144 30 76.6343 29.6733 78.0263 29.0199V30H84.2905V27.5108C83.5467 26.792 82.9003 25.9816 82.3514 25.0798C81.2599 23.255 80.7141 21.2729 80.7141 19.1336C80.7141 16.9942 81.2599 15.0278 82.3514 13.2345C82.9003 12.3169 83.5467 11.4986 84.2905 10.7799V0.170455ZM102.002 27.0956C102.581 26.484 103.094 25.812 103.54 25.0798C104.631 23.255 105.177 21.2729 105.177 19.1336C105.177 16.9942 104.631 15.0278 103.54 13.2345C102.448 11.4098 100.955 9.97828 99.0613 8.94005C98.9121 8.85433 98.7617 8.77204 98.6102 8.69318H100.503V0.170455H106.767V8.69318H118.571V14.7869H106.767V21.8608C106.767 22.5994 106.98 23.125 107.406 23.4375C107.832 23.75 108.613 23.9062 109.75 23.9062C110.716 23.9062 111.383 23.75 111.753 23.4375C112.122 23.125 112.307 22.5994 112.307 21.8608H118.571C118.571 24.5881 117.79 26.6335 116.227 27.9972C114.665 29.3324 112.505 30 109.75 30C106.067 30 103.485 29.0319 102.002 27.0956ZM76.7053 22.5426C75.853 23.3949 74.7735 23.821 73.4666 23.821C72.1598 23.821 71.0661 23.3949 70.1854 22.5426C69.3331 21.6619 68.907 20.5966 68.907 19.3466C68.907 18.0966 69.3331 17.0455 70.1854 16.1932C71.0661 15.3125 72.1598 14.8722 73.4666 14.8722C74.7735 14.8722 75.853 15.2983 76.7053 16.1506C77.586 17.0028 78.0263 18.0682 78.0263 19.3466C78.0263 20.625 77.586 21.6903 76.7053 22.5426ZM121.294 26.5483C121.692 26.946 122.189 27.1449 122.785 27.1449C123.41 27.1449 123.907 26.946 124.277 26.5483C124.674 26.1506 124.873 25.6534 124.873 25.0568C124.873 24.4318 124.674 23.9347 124.277 23.5653C123.907 23.1676 123.41 22.9688 122.785 22.9688C122.189 22.9688 121.692 23.1676 121.294 23.5653C120.896 23.9347 120.697 24.4318 120.697 25.0568C120.697 25.6534 120.896 26.1506 121.294 26.5483Z" fill="#F7FFFF"/>
<path d="M93.0743 27.1828C95.4253 27.1828 97.3675 26.4162 98.9007 24.8829C100.485 23.2985 101.277 21.3819 101.277 19.1332C101.277 16.8844 100.485 14.9933 98.9007 13.4601C97.3675 11.8757 95.4253 11.0835 93.0743 11.0835C90.7233 11.0835 88.7556 11.8501 87.1712 13.3834C85.638 14.9167 84.8713 16.8332 84.8713 19.1332C84.8713 21.4331 85.638 23.3496 87.1712 24.8829C88.7556 26.4162 90.7233 27.1828 93.0743 27.1828Z" fill="#E6875F"/>
</svg>
