<svg width="107" height="34" viewBox="0 0 107 34" fill="none" xmlns="http://www.w3.org/2000/svg">
<g clip-path="url(#clip0_1_502)">
<path d="M12.1684 9.75H15.1084V24.5H13.4884V11.11L13.5384 11.13L9.77845 24.5H7.33845L3.55845 11.12L3.60845 11.1V24.5H1.98845V9.75H4.92845L8.54845 23.13H8.52845L12.1684 9.75ZM19.0475 11.25L19.8175 10.28V16.94L19.3975 16.35H25.0575V17.85H19.3975L19.8175 17.26V23.97L19.0475 23H26.1675V24.5H18.1075V9.75H26.1675V11.25H19.0475ZM30.6464 24.5H28.9864V9.75H31.7764L38.0364 23.52L37.9064 23.6V9.75H39.5664V24.5H36.7364L30.4964 10.75L30.6464 10.68V24.5ZM52.5149 19.06C52.5149 20.9733 52.0682 22.3933 51.1749 23.32C50.2815 24.24 49.0382 24.7 47.4449 24.7C45.8582 24.7 44.6182 24.24 43.7249 23.32C42.8315 22.3933 42.3849 20.9733 42.3849 19.06C42.3849 18.7667 42.3849 18.4567 42.3849 18.13C42.3849 17.7967 42.3849 17.4467 42.3849 17.08V9.75H44.0949V17.23C44.0949 17.5767 44.0949 17.9 44.0949 18.2C44.0949 18.5 44.0949 18.7767 44.0949 19.03C44.0949 20.51 44.3782 21.57 44.9449 22.21C45.5115 22.8433 46.3449 23.16 47.4449 23.16C48.5515 23.16 49.3882 22.8433 49.9549 22.21C50.5282 21.57 50.8149 20.51 50.8149 19.03V9.75H52.5149V19.06Z" fill="#1A1A1A"/>
</g>
<circle cx="89.5697" cy="17.0001" r="3.525" fill="#1A1A1A"/>
<circle cx="101.546" cy="6.02402" r="3.525" fill="#1A1A1A"/>
<circle cx="101.546" cy="27.9759" r="3.525" fill="#1A1A1A"/>
<circle cx="77.5936" cy="6.02402" r="3.525" fill="#1A1A1A"/>
<circle cx="77.5936" cy="27.9759" r="3.525" fill="#1A1A1A"/>
<defs>
<clipPath id="clip0_1_502">
<rect width="54" height="18" fill="white" transform="translate(0.56958 8)"/>
</clipPath>
</defs>
</svg>
