<svg width="107" height="34" viewBox="0 0 107 34" fill="none" xmlns="http://www.w3.org/2000/svg">
<g clip-path="url(#clip0_1_513)">
<path d="M12.4722 9.75H15.4122V24.5H13.7922V11.11L13.8422 11.13L10.0822 24.5H7.64216L3.86216 11.12L3.91216 11.1V24.5H2.29216V9.75H5.23216L8.85216 23.13H8.83216L12.4722 9.75ZM19.3512 11.25L20.1212 10.28V16.94L19.7012 16.35H25.3612V17.85H19.7012L20.1212 17.26V23.97L19.3512 23H26.4712V24.5H18.4112V9.75H26.4712V11.25H19.3512ZM30.9501 24.5H29.2901V9.75H32.0801L38.3401 23.52L38.2101 23.6V9.75H39.8701V24.5H37.0401L30.8001 10.75L30.9501 10.68V24.5ZM52.8186 19.06C52.8186 20.9733 52.3719 22.3933 51.4786 23.32C50.5852 24.24 49.3419 24.7 47.7486 24.7C46.1619 24.7 44.9219 24.24 44.0286 23.32C43.1352 22.3933 42.6886 20.9733 42.6886 19.06C42.6886 18.7667 42.6886 18.4567 42.6886 18.13C42.6886 17.7967 42.6886 17.4467 42.6886 17.08V9.75H44.3986V17.23C44.3986 17.5767 44.3986 17.9 44.3986 18.2C44.3986 18.5 44.3986 18.7767 44.3986 19.03C44.3986 20.51 44.6819 21.57 45.2486 22.21C45.8152 22.8433 46.6486 23.16 47.7486 23.16C48.8552 23.16 49.6919 22.8433 50.2586 22.21C50.8319 21.57 51.1186 20.51 51.1186 19.03V9.75H52.8186V19.06Z" fill="white"/>
</g>
<circle cx="89.8733" cy="17" r="17" fill="white"/>
<defs>
<clipPath id="clip0_1_513">
<rect width="54" height="18" fill="white" transform="translate(0.873291 8)"/>
</clipPath>
</defs>
</svg>
