<svg width="140" height="151" viewBox="0 0 140 151" fill="none" xmlns="http://www.w3.org/2000/svg">
<path d="M64.013 134.215C64.7239 134.281 65.3222 134.449 65.8079 134.719C66.2886 134.994 66.6424 135.371 66.8695 135.851C67.0966 136.332 67.1786 136.911 67.1154 137.59C67.1068 137.683 67.0994 137.762 67.0934 137.827C67.0873 137.892 67.08 137.971 67.0713 138.064L65.8795 137.953C65.8877 137.864 65.8946 137.79 65.9002 137.73C65.9058 137.669 65.913 137.593 65.9216 137.5C65.9878 136.789 65.8498 136.258 65.5075 135.907C65.1647 135.561 64.6379 135.355 63.927 135.289C63.1928 135.221 62.6259 135.295 62.2261 135.51C61.8264 135.726 61.6004 136.115 61.548 136.678C61.5112 137.073 61.5899 137.41 61.7841 137.691C61.9732 137.976 62.2498 138.226 62.6139 138.443C62.9776 138.664 63.4056 138.875 63.8978 139.076C64.4529 139.306 64.9433 139.576 65.3689 139.888C65.7899 140.199 66.1121 140.564 66.3355 140.983C66.5539 141.406 66.6364 141.904 66.5832 142.475C66.5313 143.033 66.3526 143.492 66.0472 143.853C65.7372 144.213 65.3289 144.47 64.8224 144.624C64.3159 144.779 63.7397 144.826 63.0939 144.766C62.4108 144.702 61.8283 144.54 61.3464 144.28C60.8594 144.023 60.4989 143.666 60.265 143.209C60.026 142.755 59.9368 142.203 59.9974 141.553C60.0069 141.451 60.0151 141.362 60.022 141.288C60.0285 141.218 60.0365 141.132 60.046 141.03L61.2379 141.141C61.2297 141.229 61.2223 141.308 61.2158 141.378C61.2093 141.448 61.202 141.527 61.1938 141.615C61.1306 142.293 61.2694 142.791 61.61 143.109C61.9503 143.431 62.4712 143.625 63.1729 143.69C63.8466 143.753 64.3781 143.683 64.7672 143.48C65.1564 143.278 65.376 142.907 65.4262 142.368C65.4639 141.963 65.3835 141.618 65.1851 141.333C64.9817 141.051 64.6934 140.8 64.3204 140.577C63.947 140.36 63.5171 140.144 63.0309 139.93C62.4408 139.674 61.9392 139.397 61.5263 139.101C61.1082 138.809 60.8005 138.464 60.6032 138.066C60.4013 137.668 60.3269 137.183 60.3801 136.611C60.4334 136.04 60.6159 135.564 60.9276 135.186C61.2348 134.807 61.6515 134.534 62.1779 134.367C62.6997 134.2 63.3113 134.149 64.013 134.215Z" fill="white"/>
<path d="M48.7567 134.713C48.8681 134.313 49.0568 133.922 49.3228 133.541C49.5875 133.164 49.9205 132.838 50.3219 132.562C50.7175 132.289 51.173 132.106 51.6883 132.012C52.2037 131.918 52.7671 131.956 53.3786 132.127C54.2193 132.361 54.8734 132.778 55.3409 133.378C55.8072 133.982 56.0885 134.712 56.1847 135.567C56.2764 136.421 56.1846 137.342 55.9092 138.332C55.6327 139.325 55.2351 140.161 54.7167 140.841C54.1925 141.523 53.5752 142 52.8649 142.272C52.1545 142.545 51.379 142.564 50.5383 142.33C49.837 142.134 49.2791 141.824 48.8647 141.399C48.4502 140.973 48.1588 140.497 47.9905 139.971C47.8222 139.445 47.7588 138.933 47.8003 138.436C47.8171 138.184 47.855 137.952 47.9138 137.741L49.067 138.062C49.0332 138.183 49.0056 138.326 48.9843 138.489C48.9331 138.882 48.9665 139.267 49.0845 139.643C49.1967 140.023 49.3967 140.358 49.6845 140.646C49.9712 140.939 50.3527 141.152 50.8293 141.284C51.3867 141.44 51.9171 141.423 52.4203 141.233C52.919 141.043 53.3691 140.679 53.7706 140.141C54.1675 139.603 54.4893 138.891 54.7359 138.005C54.9824 137.119 55.0755 136.341 55.0152 135.67C54.9491 135.003 54.7524 134.456 54.4252 134.031C54.0922 133.609 53.6469 133.32 53.0895 133.165C52.6893 133.054 52.3164 133.027 51.9707 133.086C51.6236 133.149 51.3129 133.274 51.0386 133.459C50.7584 133.647 50.5225 133.877 50.3307 134.148C50.1377 134.424 49.9974 134.719 49.9098 135.034L48.7567 134.713Z" fill="white"/>
<path d="M46.6735 129.908L42.181 139.204L38.9541 137.645C38.1011 137.233 37.5494 136.717 37.2989 136.099C37.0485 135.48 37.1233 134.757 37.5233 133.929C37.7629 133.433 38.0615 133.057 38.4191 132.799C38.7705 132.544 39.1242 132.386 39.4803 132.325C39.8322 132.262 40.1256 132.271 40.3604 132.354C40.1417 132.227 39.9494 132.057 39.7837 131.842C39.6118 131.629 39.5061 131.376 39.4667 131.082C39.4272 130.788 39.4978 130.454 39.6786 130.08C39.8451 129.736 40.0156 129.383 40.1903 129.022C40.3628 128.664 40.5334 128.312 40.7019 127.963C40.7893 127.782 40.8527 127.613 40.8923 127.456C40.9299 127.303 40.941 127.195 40.9255 127.13L42.0096 127.654C42.0126 127.723 41.9963 127.832 41.9608 127.98C41.9252 128.129 41.8627 128.296 41.7734 128.481C41.617 128.804 41.4576 129.134 41.2952 129.47C41.1328 129.806 40.9724 130.138 40.814 130.466C40.615 130.878 40.597 131.247 40.7601 131.575C40.9231 131.902 41.242 132.181 41.7168 132.41L44.0047 133.516L43.5042 133.78L45.621 129.399L46.6735 129.908ZM43.4615 133.868L43.5478 134.461L41.2474 133.35C40.9364 133.2 40.6184 133.139 40.2932 133.169C39.9617 133.2 39.6544 133.316 39.3711 133.516C39.0816 133.718 38.8476 134.004 38.6689 134.374C38.3907 134.95 38.344 135.432 38.5287 135.822C38.7135 136.212 39.0916 136.545 39.663 136.821L41.9131 137.909L41.36 138.217L43.4615 133.868Z" fill="white"/>
<path d="M34.6855 122.739C35.1703 123.096 35.5451 123.52 35.8099 124.01C36.0709 124.498 36.2176 125.035 36.2499 125.62C36.2756 126.207 36.1761 126.827 35.9514 127.478C35.7229 128.127 35.3597 128.79 34.8617 129.466C34.3637 130.143 33.8402 130.684 33.2913 131.092C32.7359 131.5 32.1769 131.775 31.6144 131.917C31.0454 132.06 30.4888 132.077 29.9446 131.966C29.4004 131.855 28.8877 131.622 28.4067 131.268C27.9219 130.911 27.5457 130.489 27.2782 130.003C27.0106 129.516 26.8626 128.981 26.834 128.398C26.799 127.816 26.8957 127.2 27.1242 126.552C27.3462 125.904 27.7061 125.242 28.2041 124.565C28.7021 123.889 29.2288 123.346 29.7843 122.938C30.336 122.527 30.8977 122.248 31.4695 122.101C32.0347 121.955 32.5908 121.936 33.1378 122.043C33.6848 122.15 34.2007 122.382 34.6855 122.739ZM34.0464 123.607C33.5842 123.267 33.0837 123.093 32.5451 123.084C32.0065 123.076 31.4522 123.25 30.8823 123.607C30.3096 123.968 29.7439 124.528 29.185 125.287C28.6234 126.05 28.2601 126.756 28.095 127.405C27.9263 128.052 27.9286 128.627 28.102 129.132C28.2755 129.636 28.5914 130.057 29.0499 130.394C29.5047 130.729 30.0005 130.906 30.5373 130.924C31.0704 130.94 31.6224 130.773 32.1933 130.422C32.7605 130.069 33.3248 129.511 33.8865 128.748C34.4481 127.985 34.816 127.277 34.9903 126.623C35.1581 125.97 35.1581 125.387 34.9902 124.876C34.8157 124.365 34.5011 123.942 34.0464 123.607Z" fill="white"/>
<path d="M28.6917 117.809L21.2314 124.946L20.4039 124.082L27.5961 117.2L27.4782 118.059L24.2891 114.726L25.0478 114L28.6917 117.809Z" fill="white"/>
<path d="M22.868 111.17L14.4257 117.114L13.7366 116.135L21.8755 110.405L21.6306 111.236L18.9749 107.464L19.8334 106.86L22.868 111.17Z" fill="white"/>
<path d="M4.63532 95.6695L5.66939 98.4665L4.93786 98.4458L14.2742 94.9941L14.6869 96.1103L5.35051 99.562L5.87087 99.0114L6.92435 101.861L5.93951 102.225L3.65047 96.0336L4.63532 95.6695Z" fill="white"/>
<path d="M11.987 85.421C12.0921 86.0138 12.0715 86.5791 11.9251 87.1169C11.7779 87.6501 11.514 88.14 11.1335 88.5866C10.7475 89.0295 10.2485 89.4094 9.63649 89.7264C9.02362 90.0389 8.30364 90.2684 7.47654 90.4151C6.64943 90.5617 5.89672 90.5933 5.21839 90.5097C4.53465 90.4224 3.94004 90.2364 3.43456 89.9516C2.92367 89.663 2.50936 89.2909 2.19163 88.8354C1.8739 88.3799 1.66289 87.858 1.55862 87.2699C1.45353 86.6771 1.47187 86.1122 1.61364 85.5752C1.75541 85.0382 2.01697 84.5487 2.39833 84.1067C2.77428 83.6609 3.26869 83.2818 3.88156 82.9693C4.48901 82.6531 5.20629 82.4216 6.0334 82.275C6.8605 82.1284 7.61592 82.0987 8.29966 82.186C8.98259 82.2688 9.58179 82.454 10.0973 82.7418C10.6073 83.0257 11.0235 83.3951 11.3459 83.8498C11.6682 84.3045 11.8819 84.8283 11.987 85.421ZM10.9256 85.6092C10.8254 85.044 10.583 84.5727 10.1986 84.1954C9.81414 83.818 9.29247 83.5622 8.63356 83.4278C7.97006 83.2943 7.17421 83.3098 6.24602 83.4743C5.31323 83.6397 4.56326 83.9006 3.99612 84.2571C3.42816 84.609 3.03313 85.0274 2.81103 85.5122C2.58893 85.9971 2.52757 86.5199 2.62696 87.0804C2.72553 87.6364 2.96285 88.1062 3.33892 88.4898C3.71417 88.8688 4.22936 89.1282 4.88449 89.2679C5.5388 89.4031 6.33235 89.388 7.26514 89.2227C8.19792 89.0573 8.95289 88.7979 9.53004 88.4443C10.1018 88.087 10.5033 87.6651 10.7346 87.1786C10.9605 86.6883 11.0241 86.1652 10.9256 85.6092Z" fill="white"/>
<path d="M1.9874 69.9731L1.3698 69.3647L6.00517 69.8622L5.56315 70.1105L5.98602 66.1711L7.03002 66.2832L6.60716 70.2226L6.22789 69.8862L10.8981 70.3875L10.1654 70.8509L10.6974 65.8954L11.7414 66.0075L11.1392 71.6172L0.873166 70.5152L1.47534 64.9055L2.51934 65.0175L1.9874 69.9731Z" fill="white"/>
<path d="M7.91307 58.0235L8.84786 58.2935L2.46535 59.9167L2.8272 58.6296L8.27162 57.3171L8.05374 58.0921L4.08518 54.1551L4.44704 52.868L9.05626 57.5523L8.11768 57.2957L14.4151 55.5613L14.0514 56.8552L8.6815 58.2904L8.91074 57.475L12.7441 61.5049L12.3823 62.792L7.91307 58.0235Z" fill="white"/>
<path d="M16.2328 51.4621L15.7154 52.5415L6.40469 48.0787L7.65729 45.4654C8.00221 44.7458 8.4233 44.2128 8.92055 43.8663C9.4136 43.5179 9.94174 43.3337 10.505 43.3139C11.0682 43.2941 11.6255 43.4163 12.1768 43.6805C12.728 43.9448 13.1787 44.3109 13.5289 44.7788C13.881 45.2426 14.0852 45.7829 14.1414 46.3998C14.1954 47.0105 14.054 47.6672 13.7171 48.37L12.9819 49.9039L16.2328 51.4621ZM12.5842 49.7133L11.8021 49.9361L12.7067 48.0487C12.9488 47.5437 13.0611 47.0826 13.0437 46.6655C13.0241 46.2421 12.8938 45.8717 12.6526 45.5543C12.4135 45.2326 12.0814 44.97 11.6563 44.7662C11.2271 44.5605 10.8227 44.465 10.443 44.4796C10.0634 44.4943 9.71393 44.6296 9.39467 44.8854C9.07541 45.1412 8.79072 45.53 8.5406 46.0518L7.63594 47.9392L7.25662 47.1597L12.5842 49.7133Z" fill="white"/>
<path d="M20.5491 43.5337L12.0764 37.633L12.7604 36.6507L20.9287 42.3394L20.0635 42.3937L22.6998 38.6083L23.5614 39.2083L20.5491 43.5337Z" fill="white"/>
<path d="M28.6241 33.8849C28.2002 34.3123 27.7263 34.6212 27.2025 34.8115C26.6819 34.9984 26.1294 35.0651 25.5451 35.0114C24.9608 34.9512 24.3627 34.7623 23.7509 34.4447C23.1424 34.1239 22.5399 33.6677 21.9435 33.0762C21.3471 32.4847 20.8875 31.8877 20.565 31.2852C20.2423 30.676 20.0518 30.0829 19.9933 29.5056C19.9347 28.9218 20.0001 28.3688 20.1893 27.8466C20.3785 27.3245 20.6834 26.8513 21.104 26.4272C21.5279 25.9997 22.0002 25.6892 22.5208 25.4957C23.0413 25.3021 23.5921 25.2338 24.1731 25.2908C24.7541 25.3412 25.3489 25.5268 25.9574 25.8476C26.5659 26.1619 27.1683 26.6148 27.7648 27.2063C28.3612 27.7977 28.8207 28.3981 29.1433 29.0072C29.4693 29.613 29.6631 30.2095 29.725 30.7966C29.7868 31.3771 29.7248 31.9301 29.5388 32.4555C29.3529 32.981 29.048 33.4574 28.6241 33.8849ZM27.8587 33.1258C28.2629 32.7182 28.5084 32.2486 28.5953 31.717C28.6822 31.1854 28.5907 30.6116 28.3209 29.9956C28.0477 29.3764 27.5764 28.7349 26.9071 28.0711C26.2344 27.404 25.589 26.9414 24.9709 26.6833C24.356 26.4219 23.7865 26.3401 23.2622 26.438C22.7379 26.5359 22.2753 26.7869 21.8744 27.1912C21.4768 27.5921 21.2296 28.0568 21.1328 28.5852C21.0393 29.1102 21.1242 29.6808 21.3874 30.2967C21.654 30.9094 22.1236 31.5493 22.7962 32.2163C23.4689 32.8834 24.116 33.3509 24.7374 33.6189C25.3589 33.8803 25.9351 33.9654 26.466 33.8741C26.9969 33.7762 27.4611 33.5268 27.8587 33.1258Z" fill="white"/>
<path d="M34.3345 28.6749L28.4609 20.1834L31.4084 18.1445C32.1875 17.6056 32.9079 17.3796 33.5696 17.4667C34.2313 17.5537 34.8236 17.9753 35.3466 18.7314C35.6599 19.1842 35.8403 19.6297 35.888 20.0677C35.9368 20.4992 35.9 20.885 35.7777 21.2249C35.6592 21.5622 35.5062 21.8127 35.3187 21.9765C35.5366 21.8485 35.7798 21.7653 36.0484 21.7271C36.3182 21.6823 36.5906 21.7152 36.8657 21.8257C37.1407 21.9362 37.3963 22.1622 37.6326 22.5038C37.8503 22.8185 38.0733 23.1409 38.3016 23.471C38.5273 23.7972 38.7503 24.1196 38.9706 24.4381C39.0848 24.6032 39.2004 24.7416 39.3175 24.8536C39.432 24.9616 39.5211 25.0248 39.5849 25.0431L38.5947 25.7281C38.5333 25.6968 38.4467 25.629 38.3349 25.5248C38.2231 25.4205 38.1087 25.284 37.9919 25.1151C37.7875 24.8196 37.5791 24.5183 37.3667 24.2113C37.1544 23.9042 36.9446 23.601 36.7376 23.3017C36.4774 22.9255 36.1646 22.7277 35.7992 22.708C35.4339 22.6884 35.0343 22.8286 34.6006 23.1286L32.5108 24.5741L32.5283 24.0088L35.2959 28.0098L34.3345 28.6749ZM32.4726 23.9282L31.9135 23.7106L34.0148 22.2571C34.2988 22.0606 34.5082 21.8137 34.6429 21.5162C34.7788 21.2123 34.8295 20.8878 34.7951 20.5427C34.7619 20.1912 34.6285 19.8466 34.3949 19.5088C34.0312 18.983 33.6342 18.7044 33.2039 18.6729C32.7736 18.6415 32.2974 18.8063 31.7755 19.1673L29.7202 20.5889L29.7249 19.9559L32.4726 23.9282Z" fill="white"/>
<path d="M39.6393 14.5664L39.8394 13.7229L41.8168 17.9448L41.3753 17.6954L44.9633 16.015L45.4087 16.9659L41.8207 18.6463L41.9118 18.1476L43.9039 22.4012L43.1278 22.0149L47.6413 19.901L48.0867 20.8519L42.9773 23.2449L38.5981 13.8946L43.7075 11.5016L44.1528 12.4525L39.6393 14.5664Z" fill="white"/>
<path d="M56.6883 14.543L56.554 13.799L61.3484 12.9332L61.4828 13.6771L56.6883 14.543Z" fill="white"/>
<path d="M75.6163 17.1407C74.905 17.079 74.3056 16.9147 73.8182 16.6476C73.3358 16.3763 72.9795 16.0011 72.7494 15.5221C72.5192 15.0431 72.4335 14.4642 72.4923 13.7854C72.5004 13.6924 72.5073 13.6134 72.5129 13.5483C72.5185 13.4832 72.5254 13.4042 72.5334 13.3112L73.726 13.4145C73.7183 13.5029 73.7119 13.5773 73.7066 13.6377C73.7014 13.6981 73.6947 13.7749 73.6867 13.8678C73.625 14.5792 73.7665 15.109 74.111 15.4574C74.456 15.8012 74.9841 16.0038 75.6954 16.0655C76.43 16.1292 76.9965 16.0518 77.3948 15.8334C77.7932 15.6149 78.0167 15.2244 78.0655 14.6619C78.0997 14.2667 78.0189 13.9295 77.8229 13.6502C77.632 13.3666 77.3538 13.1177 76.9883 12.9033C76.6232 12.6843 76.1939 12.4761 75.7004 12.2788C75.1439 12.0525 74.6518 11.7851 74.2242 11.4763C73.8012 11.168 73.4767 10.8049 73.2506 10.3872C73.0295 9.9652 72.9438 9.46827 72.9933 8.89642C73.0417 8.33851 73.2174 7.87829 73.5205 7.51578C73.8283 7.15366 74.2349 6.8938 74.7404 6.73619C75.2459 6.57858 75.8217 6.52778 76.468 6.58379C77.1514 6.64302 77.7349 6.80132 78.2185 7.0587C78.7072 7.31184 79.0699 7.66648 79.3067 8.12263C79.5486 8.57454 79.6413 9.12594 79.5849 9.77683C79.5761 9.87911 79.5684 9.96745 79.562 10.0418C79.5559 10.1116 79.5485 10.1976 79.5396 10.2999L78.3471 10.1965C78.3547 10.1082 78.3616 10.0291 78.3676 9.95941C78.3737 9.88967 78.3805 9.81063 78.3882 9.7223C78.447 9.04351 78.3051 8.5464 77.9623 8.23096C77.62 7.91088 77.0979 7.72041 76.3958 7.65957C75.7217 7.60115 75.1907 7.67458 74.8029 7.87986C74.415 8.08514 74.1977 8.45743 74.151 8.99674C74.1159 9.40123 74.1985 9.74564 74.3987 10.03C74.604 10.3101 74.8938 10.56 75.2682 10.7799C75.643 10.995 76.0743 11.2081 76.5619 11.4189C77.1536 11.6716 77.6569 11.9448 78.0718 12.2384C78.4917 12.5277 78.8015 12.8707 79.0014 13.2675C79.2058 13.6646 79.2833 14.1491 79.2337 14.721C79.1842 15.2928 79.0047 15.7691 78.6954 16.1498C78.3907 16.5309 77.9756 16.8065 77.4503 16.9764C76.9297 17.1468 76.3183 17.2015 75.6163 17.1407Z" fill="white"/>
<path d="M90.8692 16.5445C90.7603 16.9453 90.5741 17.3372 90.3106 17.7202C90.0482 18.0987 89.7173 18.4271 89.3177 18.7055C88.9239 18.9806 88.4696 19.1667 87.9548 19.2639C87.44 19.3611 86.8764 19.3265 86.2639 19.1603C85.4217 18.9316 84.7649 18.5188 84.2936 17.9217C83.8234 17.3202 83.5375 16.5922 83.4359 15.7377C83.3387 14.8844 83.4246 13.9624 83.6936 12.9716C83.9638 11.9763 84.356 11.1374 84.8701 10.4549C85.39 9.76918 86.0042 9.28797 86.7128 9.0113C87.4213 8.73462 88.1967 8.71061 89.0389 8.93926C89.7415 9.13001 90.3013 9.43675 90.7185 9.85948C91.1356 10.2822 91.43 10.7563 91.6017 11.2816C91.7734 11.8069 91.8401 12.3183 91.8018 12.8156C91.7865 13.0677 91.7501 13.2996 91.6927 13.5113L90.5375 13.1977C90.5705 13.0761 90.5971 12.9334 90.6174 12.7697C90.6661 12.3767 90.6302 11.9922 90.5099 11.6162C90.3953 11.2369 90.1931 10.904 89.9034 10.6174C89.6149 10.3263 89.232 10.116 88.7546 9.98636C88.1962 9.83474 87.6659 9.85519 87.164 10.0477C86.6665 10.2415 86.2187 10.6083 85.8207 11.1482C85.4272 11.6893 85.1099 12.4035 84.8691 13.2907C84.6282 14.1779 84.5401 14.9567 84.6047 15.6271C84.675 16.2941 84.8752 16.8393 85.2051 17.2625C85.5408 17.6825 85.9879 17.9683 86.5464 18.1199C86.9472 18.2287 87.3203 18.2527 87.6656 18.1917C88.0122 18.1262 88.3221 18 88.5953 17.8131C88.8743 17.6228 89.1087 17.3915 89.2987 17.1191C89.49 16.8422 89.6284 16.5461 89.714 16.2309L90.8692 16.5445Z" fill="white"/>
<path d="M92.9829 21.3358L97.4159 12.0109L100.653 13.5497C101.508 13.9564 102.063 14.4683 102.318 15.0853C102.572 15.7023 102.502 16.4259 102.107 17.2562C101.871 17.7535 101.575 18.132 101.219 18.3917C100.869 18.6491 100.516 18.8096 100.161 18.873C99.8091 18.9384 99.5157 18.9307 99.2803 18.8498C99.4998 18.9748 99.6932 19.1443 99.8602 19.358C100.034 19.5696 100.141 19.8221 100.182 20.1156C100.223 20.4091 100.155 20.7434 99.9766 21.1185C99.8123 21.4641 99.644 21.8182 99.4717 22.1806C99.3014 22.5389 99.1331 22.8929 98.9668 23.2427C98.8807 23.4239 98.8183 23.5932 98.7796 23.7505C98.743 23.9036 98.7327 24.0124 98.7486 24.0768L97.6612 23.5599C97.6577 23.491 97.6733 23.3822 97.7079 23.2333C97.7425 23.0844 97.8039 22.9172 97.8921 22.7318C98.0464 22.4073 98.2036 22.0764 98.3639 21.7392C98.5242 21.4021 98.6825 21.0691 98.8388 20.7404C99.0351 20.3273 99.0507 19.9575 98.8856 19.631C98.7205 19.3045 98.3998 19.028 97.9235 18.8016L95.6286 17.7106L96.1275 17.444L94.0387 21.8377L92.9829 21.3358ZM96.1695 17.3555L96.0795 16.7623L98.387 17.8593C98.6989 18.0076 99.0173 18.066 99.3423 18.0345C99.6736 18.0007 99.9801 17.883 100.262 17.6811C100.55 17.4771 100.783 17.1897 100.959 16.8188C101.233 16.2414 101.277 15.7583 101.09 15.3696C100.902 14.9809 100.522 14.6503 99.9491 14.3778L97.6921 13.3048L98.2433 12.9933L96.1695 17.3555Z" fill="white"/>
<path d="M105.017 28.4284C104.529 28.0746 104.152 27.6533 103.884 27.1646C103.62 26.6786 103.47 26.1427 103.434 25.5571C103.404 24.9704 103.5 24.3505 103.72 23.6975C103.945 23.0472 104.304 22.3822 104.797 21.7026C105.291 21.0229 105.811 20.4778 106.357 20.0671C106.91 19.6554 107.467 19.3766 108.029 19.2308C108.597 19.084 109.153 19.0643 109.698 19.1717C110.243 19.2791 110.757 19.5083 111.241 19.8593C111.728 20.2131 112.107 20.6325 112.377 21.1175C112.648 21.6025 112.799 22.1364 112.832 22.7193C112.87 23.3012 112.778 23.9173 112.553 24.5676C112.336 25.2169 111.98 25.8813 111.486 26.561C110.992 27.2406 110.469 27.7863 109.916 28.198C109.367 28.6124 108.807 28.895 108.237 29.0456C107.672 29.1952 107.116 29.2182 106.569 29.1145C106.021 29.0109 105.504 28.7822 105.017 28.4284ZM105.65 27.5562C106.114 27.8935 106.616 28.0646 107.155 28.0694C107.693 28.0743 108.247 27.8964 108.814 27.5358C109.384 27.1714 109.947 26.6079 110.501 25.8452C111.057 25.0787 111.416 24.3703 111.577 23.72C111.742 23.0725 111.736 22.4971 111.559 21.9939C111.382 21.4907 111.064 21.0718 110.603 20.7372C110.146 20.4053 109.649 20.2319 109.112 20.2167C108.579 20.2044 108.028 20.3752 107.46 20.7293C106.895 21.0861 106.334 21.6478 105.777 22.4143C105.22 23.1807 104.857 23.8915 104.687 24.5466C104.523 25.2006 104.527 25.7831 104.698 26.2938C104.876 26.8036 105.193 27.2244 105.65 27.5562Z" fill="white"/>
<path d="M111.042 33.3205L118.456 26.1351L119.289 26.9947L112.141 33.9219L112.254 33.0623L115.464 36.375L114.71 37.1057L111.042 33.3205Z" fill="white"/>
<path d="M116.908 39.922L125.312 33.924L126.007 34.8983L117.905 40.6808L118.144 39.8477L120.824 43.6025L119.97 44.2124L116.908 39.922Z" fill="white"/>
<path d="M135.239 55.3053L134.187 52.515L134.919 52.531L125.604 56.0423L125.185 54.9288L134.499 51.4175L133.982 51.9714L132.91 49.1287L133.893 48.7583L136.221 54.9349L135.239 55.3053Z" fill="white"/>
<path d="M127.953 65.6006C127.844 65.0085 127.861 64.4431 128.004 63.9044C128.148 63.3702 128.409 62.8786 128.786 62.4296C129.17 61.9843 129.666 61.6012 130.276 61.2802C130.887 60.9639 131.605 60.7297 132.432 60.5778C133.258 60.4259 134.01 60.3895 134.689 60.4687C135.373 60.5517 135.969 60.7339 136.476 61.0155C136.989 61.3008 137.406 61.6702 137.727 62.1237C138.047 62.5772 138.261 63.0977 138.37 63.6851C138.478 64.2772 138.464 64.8422 138.325 65.3801C138.187 65.918 137.929 66.4091 137.55 66.8536C137.177 67.3018 136.685 67.6841 136.074 68.0004C135.469 68.3205 134.753 68.5566 133.927 68.7085C133.101 68.8604 132.345 68.8949 131.661 68.8119C130.978 68.7336 130.377 68.5522 129.86 68.2677C129.348 67.987 128.93 67.6203 128.604 67.1677C128.279 66.715 128.062 66.1926 127.953 65.6006ZM129.013 65.4056C129.117 65.9701 129.363 66.4399 129.749 66.8147C130.136 67.1896 130.66 67.4422 131.319 67.5723C131.984 67.7016 132.779 67.681 133.706 67.5106C134.638 67.3392 135.386 67.0735 135.951 66.7134C136.517 66.3579 136.909 65.937 137.128 65.4507C137.347 64.9644 137.405 64.4413 137.302 63.8814C137.2 63.326 136.96 62.8578 136.581 62.4766C136.204 62.1 135.687 61.8439 135.031 61.7083C134.376 61.5773 133.582 61.5975 132.651 61.7688C131.719 61.9402 130.966 62.2044 130.391 62.5616C129.821 62.9225 129.422 63.347 129.194 63.835C128.972 64.3267 128.911 64.8503 129.013 65.4056Z" fill="white"/>
<path d="M138.051 80.9843L138.672 81.5887L134.034 81.1208L134.474 80.8697L134.077 84.8117L133.032 84.7063L133.43 80.7643L133.811 81.0983L129.138 80.6268L129.868 80.1587L129.367 85.1176L128.323 85.0122L128.889 79.3987L139.162 80.435L138.595 86.0485L137.551 85.9431L138.051 80.9843Z" fill="white"/>
<path d="M132.202 92.9716L131.266 92.7075L137.638 91.0436L137.284 92.333L131.848 93.6802L132.061 92.9039L136.055 96.8155L135.701 98.1049L131.062 93.4501L132.002 93.7007L125.716 95.4752L126.071 94.1791L131.432 92.7096L131.208 93.5264L127.349 89.5211L127.702 88.2317L132.202 92.9716Z" fill="white"/>
<path d="M123.924 99.5862L124.435 98.5035L133.774 102.907L132.538 105.528C132.198 106.25 131.78 106.785 131.285 107.135C130.794 107.487 130.267 107.674 129.704 107.698C129.141 107.721 128.583 107.602 128.03 107.342C127.477 107.081 127.024 106.718 126.671 106.252C126.316 105.79 126.108 105.251 126.048 104.635C125.99 104.025 126.127 103.367 126.46 102.662L127.185 101.124L123.924 99.5862ZM127.584 101.312L128.365 101.084L127.472 102.977C127.233 103.483 127.124 103.945 127.144 104.362C127.166 104.786 127.299 105.155 127.542 105.471C127.783 105.791 128.117 106.052 128.543 106.253C128.974 106.456 129.379 106.549 129.759 106.531C130.138 106.514 130.487 106.377 130.804 106.119C131.122 105.861 131.404 105.471 131.651 104.947L132.543 103.054L132.928 103.831L127.584 101.312Z" fill="white"/>
<path d="M119.659 107.542L128.169 113.388L127.491 114.375L119.287 108.738L120.152 108.678L117.539 112.481L116.674 111.886L119.659 107.542Z" fill="white"/>
<path d="M111.646 117.242C112.067 116.812 112.539 116.5 113.061 116.306C113.581 116.116 114.133 116.046 114.717 116.096C115.302 116.152 115.901 116.337 116.515 116.651C117.126 116.968 117.731 117.42 118.331 118.008C118.931 118.596 119.395 119.19 119.721 119.79C120.048 120.397 120.242 120.989 120.304 121.566C120.366 122.149 120.305 122.703 120.119 123.226C119.933 123.75 119.631 124.225 119.213 124.651C118.792 125.082 118.322 125.395 117.802 125.592C117.283 125.789 116.733 125.861 116.151 125.807C115.57 125.761 114.974 125.579 114.364 125.262C113.753 124.952 113.148 124.503 112.548 123.915C111.947 123.327 111.484 122.73 111.157 122.123C110.828 121.519 110.63 120.924 110.564 120.337C110.499 119.757 110.557 119.204 110.74 118.677C110.923 118.15 111.224 117.672 111.646 117.242ZM112.416 117.996C112.014 118.406 111.772 118.877 111.688 119.41C111.605 119.942 111.7 120.515 111.974 121.129C112.251 121.747 112.726 122.385 113.4 123.045C114.077 123.707 114.725 124.166 115.345 124.42C115.961 124.678 116.531 124.756 117.055 124.654C117.579 124.553 118.04 124.299 118.438 123.892C118.833 123.489 119.077 123.023 119.171 122.494C119.261 121.968 119.172 121.398 118.905 120.784C118.635 120.173 118.161 119.536 117.484 118.873C116.807 118.21 116.157 117.747 115.534 117.483C114.911 117.226 114.334 117.144 113.804 117.239C113.273 117.34 112.811 117.593 112.416 117.996Z" fill="white"/>
<path d="M105.968 122.489L111.896 130.942L108.962 133C108.186 133.544 107.467 133.775 106.805 133.692C106.143 133.609 105.548 133.191 105.02 132.438C104.704 131.988 104.52 131.543 104.47 131.106C104.418 130.674 104.453 130.288 104.573 129.948C104.689 129.61 104.841 129.358 105.027 129.193C104.81 129.323 104.567 129.407 104.299 129.447C104.029 129.494 103.757 129.463 103.481 129.354C103.205 129.245 102.948 129.021 102.71 128.681C102.49 128.367 102.265 128.046 102.035 127.718C101.807 127.393 101.582 127.072 101.36 126.755C101.244 126.591 101.128 126.453 101.01 126.342C100.895 126.234 100.805 126.172 100.741 126.154L101.727 125.463C101.789 125.494 101.876 125.561 101.988 125.664C102.101 125.768 102.216 125.904 102.334 126.072C102.54 126.366 102.75 126.666 102.965 126.972C103.179 127.277 103.391 127.579 103.6 127.877C103.862 128.252 104.176 128.447 104.542 128.465C104.907 128.482 105.306 128.339 105.738 128.037L107.818 126.578L107.804 127.143L105.011 123.16L105.968 122.489ZM107.861 127.223L108.421 127.437L106.329 128.904C106.046 129.103 105.839 129.351 105.706 129.649C105.572 129.954 105.523 130.279 105.56 130.624C105.595 130.975 105.731 131.319 105.967 131.655C106.334 132.178 106.732 132.454 107.163 132.483C107.593 132.512 108.069 132.344 108.588 131.98L110.634 130.545L110.634 131.178L107.861 127.223Z" fill="white"/>
<path d="M100.754 136.63L100.559 137.475L98.555 133.266L98.998 133.513L95.4208 135.216L94.9694 134.268L98.5466 132.565L98.4587 133.064L96.4394 128.823L97.218 129.204L92.7181 131.347L92.2667 130.399L97.3607 127.973L101.8 137.296L96.7055 139.721L96.2541 138.773L100.754 136.63Z" fill="white"/>
<path d="M83.7055 136.763L83.8446 137.506L79.0558 138.402L78.9167 137.659L83.7055 136.763Z" fill="white"/>
<path d="M69.9998 92.2241L69.9998 58.7752" stroke="white" stroke-width="1.3125" stroke-linecap="square"/>
<path d="M61.9848 84.2295C66.1051 84.2295 69.9998 87.8493 69.9998 92.2246" stroke="white" stroke-width="1.3125" stroke-linecap="square"/>
<path d="M78.0148 84.2295C73.8944 84.2295 69.9998 87.8493 69.9998 92.2246" stroke="white" stroke-width="1.3125" stroke-linecap="square"/>
</svg>
