<svg width="140" height="151" viewBox="0 0 140 151" fill="none" xmlns="http://www.w3.org/2000/svg">
<path d="M64.013 134.215C64.7239 134.281 65.3222 134.449 65.8079 134.719C66.2886 134.994 66.6424 135.371 66.8695 135.851C67.0966 136.332 67.1786 136.911 67.1154 137.59C67.1068 137.683 67.0994 137.762 67.0934 137.827C67.0873 137.892 67.08 137.971 67.0713 138.064L65.8795 137.953C65.8877 137.864 65.8946 137.79 65.9002 137.73C65.9058 137.669 65.913 137.593 65.9216 137.5C65.9878 136.789 65.8498 136.258 65.5075 135.907C65.1647 135.561 64.6379 135.355 63.927 135.289C63.1928 135.221 62.6259 135.295 62.2261 135.51C61.8264 135.726 61.6004 136.115 61.548 136.678C61.5112 137.073 61.5899 137.41 61.7841 137.691C61.9732 137.976 62.2498 138.226 62.6139 138.443C62.9776 138.664 63.4056 138.875 63.8978 139.076C64.4529 139.306 64.9433 139.576 65.3689 139.888C65.7899 140.199 66.1121 140.564 66.3355 140.983C66.5539 141.406 66.6364 141.904 66.5832 142.475C66.5313 143.033 66.3526 143.492 66.0472 143.853C65.7372 144.213 65.3289 144.47 64.8224 144.624C64.3159 144.779 63.7397 144.826 63.0939 144.766C62.4108 144.702 61.8283 144.54 61.3464 144.28C60.8594 144.023 60.4989 143.666 60.265 143.209C60.026 142.755 59.9368 142.203 59.9974 141.553C60.0069 141.451 60.0151 141.362 60.022 141.288C60.0285 141.218 60.0365 141.132 60.046 141.03L61.2379 141.141C61.2297 141.229 61.2223 141.308 61.2158 141.378C61.2093 141.448 61.202 141.527 61.1938 141.615C61.1306 142.293 61.2694 142.791 61.61 143.109C61.9503 143.431 62.4712 143.625 63.1729 143.69C63.8466 143.753 64.3781 143.683 64.7672 143.48C65.1564 143.278 65.376 142.907 65.4262 142.368C65.4639 141.963 65.3835 141.618 65.1851 141.333C64.9817 141.051 64.6934 140.8 64.3204 140.577C63.947 140.36 63.5171 140.144 63.0309 139.93C62.4408 139.674 61.9392 139.397 61.5263 139.101C61.1082 138.809 60.8005 138.464 60.6032 138.066C60.4013 137.668 60.3269 137.183 60.3801 136.611C60.4334 136.04 60.6159 135.564 60.9276 135.186C61.2348 134.807 61.6515 134.534 62.1779 134.367C62.6997 134.2 63.3113 134.149 64.013 134.215Z" fill="white"/>
<path d="M48.7564 134.713C48.8678 134.313 49.0565 133.922 49.3225 133.541C49.5873 133.164 49.9203 132.838 50.3216 132.562C50.7172 132.289 51.1727 132.106 51.6881 132.012C52.2035 131.918 52.7669 131.956 53.3783 132.127C54.219 132.361 54.8731 132.778 55.3407 133.378C55.807 133.982 56.0882 134.712 56.1844 135.567C56.2761 136.421 56.1843 137.342 55.909 138.332C55.6324 139.325 55.2349 140.161 54.7164 140.841C54.1922 141.523 53.575 142 52.8646 142.272C52.1543 142.545 51.3788 142.564 50.5381 142.33C49.8367 142.134 49.2788 141.824 48.8644 141.399C48.45 140.973 48.1586 140.497 47.9903 139.971C47.8219 139.445 47.7585 138.933 47.8 138.436C47.8169 138.184 47.8547 137.952 47.9136 137.741L49.0667 138.062C49.0329 138.183 49.0054 138.326 48.984 138.489C48.9329 138.882 48.9663 139.267 49.0842 139.643C49.1964 140.023 49.3964 140.358 49.6843 140.646C49.9709 140.939 50.3525 141.152 50.829 141.284C51.3865 141.44 51.9168 141.423 52.42 141.233C52.9188 141.043 53.3688 140.679 53.7703 140.141C54.1673 139.603 54.4891 138.891 54.7356 138.005C54.9822 137.119 55.0753 136.341 55.0149 135.67C54.9489 135.003 54.7522 134.456 54.4249 134.031C54.0919 133.609 53.6467 133.32 53.0892 133.165C52.6891 133.054 52.3162 133.027 51.9704 133.086C51.6234 133.149 51.3127 133.274 51.0383 133.459C50.7582 133.647 50.5222 133.877 50.3305 134.148C50.1375 134.424 49.9972 134.719 49.9096 135.034L48.7564 134.713Z" fill="white"/>
<path d="M46.6734 129.908L42.1809 139.204L38.954 137.645C38.101 137.233 37.5493 136.717 37.2988 136.099C37.0484 135.48 37.1231 134.757 37.5232 133.929C37.7628 133.433 38.0614 133.057 38.419 132.799C38.7704 132.544 39.1241 132.386 39.4802 132.325C39.8321 132.262 40.1254 132.271 40.3603 132.354C40.1415 132.227 39.9493 132.057 39.7836 131.842C39.6117 131.629 39.506 131.376 39.4665 131.082C39.4271 130.788 39.4977 130.454 39.6784 130.08C39.8449 129.736 40.0155 129.383 40.1901 129.022C40.3627 128.664 40.5333 128.312 40.7018 127.963C40.7891 127.782 40.8526 127.613 40.8922 127.456C40.9298 127.303 40.9409 127.195 40.9254 127.13L42.0095 127.654C42.0125 127.723 41.9962 127.832 41.9606 127.98C41.9251 128.129 41.8626 128.296 41.7733 128.481C41.6169 128.804 41.4575 129.134 41.2951 129.47C41.1326 129.806 40.9722 130.138 40.8139 130.466C40.6149 130.878 40.5969 131.247 40.7599 131.575C40.923 131.902 41.2419 132.181 41.7167 132.41L44.0046 133.516L43.5041 133.78L45.6209 129.399L46.6734 129.908ZM43.4614 133.868L43.5477 134.461L41.2472 133.35C40.9363 133.2 40.6182 133.139 40.293 133.169C39.9616 133.2 39.6543 133.316 39.371 133.516C39.0815 133.718 38.8474 134.004 38.6688 134.374C38.3906 134.95 38.3439 135.432 38.5286 135.822C38.7134 136.212 39.0915 136.545 39.6629 136.821L41.913 137.909L41.3598 138.217L43.4614 133.868Z" fill="white"/>
<path d="M34.6853 122.739C35.1701 123.096 35.5448 123.52 35.8096 124.01C36.0707 124.498 36.2173 125.035 36.2496 125.62C36.2754 126.207 36.1759 126.827 35.9512 127.478C35.7227 128.127 35.3594 128.79 34.8614 129.466C34.3635 130.143 33.84 130.684 33.2911 131.092C32.7356 131.5 32.1767 131.775 31.6142 131.917C31.0452 132.06 30.4886 132.077 29.9443 131.966C29.4001 131.855 28.8875 131.622 28.4065 131.268C27.9217 130.911 27.5455 130.489 27.2779 130.003C27.0104 129.516 26.8623 128.981 26.8338 128.398C26.7987 127.816 26.8955 127.2 27.1239 126.552C27.3459 125.904 27.7059 125.242 28.2039 124.565C28.7019 123.889 29.2286 123.346 29.784 122.938C30.3357 122.527 30.8975 122.248 31.4692 122.101C32.0345 121.955 32.5906 121.936 33.1376 122.043C33.6846 122.15 34.2004 122.382 34.6853 122.739ZM34.0462 123.607C33.5839 123.267 33.0835 123.093 32.5448 123.084C32.0062 123.076 31.4519 123.25 30.882 123.607C30.3094 123.968 29.7436 124.528 29.1848 125.287C28.6231 126.05 28.2598 126.756 28.0948 127.405C27.926 128.052 27.9284 128.627 28.1018 129.132C28.2752 129.636 28.5912 130.057 29.0497 130.394C29.5044 130.729 30.0002 130.906 30.5371 130.924C31.0702 130.94 31.6222 130.773 32.1931 130.422C32.7602 130.069 33.3246 129.511 33.8862 128.748C34.4478 127.985 34.8158 127.277 34.9901 126.623C35.1579 125.97 35.1578 125.387 34.9899 124.876C34.8155 124.365 34.5009 123.942 34.0462 123.607Z" fill="white"/>
<path d="M28.6917 117.809L21.2314 124.946L20.4039 124.082L27.5961 117.2L27.4782 118.059L24.2891 114.726L25.0478 114L28.6917 117.809Z" fill="white"/>
<path d="M22.8679 111.17L14.4256 117.114L13.7365 116.135L21.8754 110.405L21.6305 111.236L18.9748 107.464L19.8333 106.86L22.8679 111.17Z" fill="white"/>
<path d="M4.6352 95.6695L5.66927 98.4665L4.93773 98.4458L14.2741 94.9941L14.6867 96.1103L5.35039 99.562L5.87074 99.0114L6.92423 101.861L5.93938 102.225L3.65035 96.0336L4.6352 95.6695Z" fill="white"/>
<path d="M11.9869 85.421C12.092 86.0138 12.0713 86.5791 11.925 87.1169C11.7778 87.6501 11.5139 88.14 11.1334 88.5866C10.7474 89.0295 10.2484 89.4094 9.63637 89.7264C9.0235 90.0389 8.30352 90.2684 7.47642 90.4151C6.64931 90.5617 5.8966 90.5933 5.21826 90.5097C4.53452 90.4224 3.93991 90.2364 3.43444 89.9516C2.92355 89.663 2.50924 89.2909 2.19151 88.8354C1.87377 88.3799 1.66277 87.858 1.5585 87.2699C1.45341 86.6771 1.47175 86.1122 1.61352 85.5752C1.75529 85.0382 2.01685 84.5487 2.39821 84.1067C2.77416 83.6609 3.26857 83.2818 3.88144 82.9693C4.48889 82.6531 5.20617 82.4216 6.03327 82.275C6.86038 82.1284 7.6158 82.0987 8.29954 82.186C8.98247 82.2688 9.58167 82.454 10.0972 82.7418C10.6072 83.0257 11.0234 83.3951 11.3458 83.8498C11.6681 84.3045 11.8818 84.8283 11.9869 85.421ZM10.9254 85.6092C10.8252 85.044 10.5829 84.5727 10.1985 84.1954C9.81402 83.818 9.29235 83.5622 8.63344 83.4278C7.96994 83.2943 7.17409 83.3098 6.2459 83.4743C5.31311 83.6397 4.56314 83.9006 3.996 84.2571C3.42804 84.609 3.03301 85.0274 2.81091 85.5122C2.58881 85.9971 2.52745 86.5199 2.62684 87.0804C2.72541 87.6364 2.96273 88.1062 3.3388 88.4898C3.71405 88.8688 4.22924 89.1282 4.88436 89.2679C5.53868 89.4031 6.33223 89.388 7.26502 89.2227C8.1978 89.0573 8.95277 88.7979 9.52992 88.4443C10.1017 88.087 10.5032 87.6651 10.7345 87.1786C10.9603 86.6883 11.024 86.1652 10.9254 85.6092Z" fill="white"/>
<path d="M1.98715 69.9731L1.36956 69.3647L6.00493 69.8622L5.56291 70.1105L5.98577 66.1711L7.02978 66.2832L6.60691 70.2226L6.22765 69.8862L10.8978 70.3875L10.1652 70.8509L10.6971 65.8954L11.7411 66.0075L11.1389 71.6172L0.872922 70.5152L1.47509 64.9055L2.51909 65.0175L1.98715 69.9731Z" fill="white"/>
<path d="M7.91282 58.0235L8.84762 58.2935L2.4651 59.9167L2.82696 58.6296L8.27137 57.3171L8.0535 58.0921L4.08494 54.1551L4.4468 52.868L9.05602 57.5523L8.11744 57.2957L14.4149 55.5613L14.0511 56.8552L8.68126 58.2904L8.9105 57.475L12.7439 61.5049L12.382 62.792L7.91282 58.0235Z" fill="white"/>
<path d="M16.2325 51.4621L15.7151 52.5415L6.40444 48.0787L7.65705 45.4654C8.00197 44.7458 8.42305 44.2128 8.92031 43.8663C9.41336 43.5179 9.9415 43.3337 10.5047 43.3139C11.068 43.2941 11.6252 43.4163 12.1765 43.6805C12.7278 43.9448 13.1785 44.3109 13.5286 44.7788C13.8807 45.2426 14.0849 45.7829 14.1411 46.3998C14.1952 47.0105 14.0537 47.6672 13.7169 48.37L12.9817 49.9039L16.2325 51.4621ZM12.584 49.7133L11.8018 49.9361L12.7065 48.0487C12.9486 47.5437 13.0609 47.0826 13.0435 46.6655C13.0239 46.2421 12.8935 45.8717 12.6524 45.5543C12.4132 45.2326 12.0811 44.97 11.6561 44.7662C11.2269 44.5605 10.8224 44.465 10.4428 44.4796C10.0631 44.4943 9.71369 44.6296 9.39443 44.8854C9.07517 45.1412 8.79048 45.53 8.54036 46.0518L7.6357 47.9392L7.25638 47.1597L12.584 49.7133Z" fill="white"/>
<path d="M20.5489 43.5337L12.0762 37.633L12.7603 36.6507L20.9286 42.3394L20.0633 42.3937L22.6997 38.6083L23.5613 39.2083L20.5489 43.5337Z" fill="white"/>
<path d="M28.624 33.8849C28.2001 34.3123 27.7262 34.6212 27.2023 34.8115C26.6817 34.9984 26.1293 35.0651 25.545 35.0114C24.9607 34.9512 24.3626 34.7623 23.7508 34.4447C23.1423 34.1239 22.5398 33.6677 21.9434 33.0762C21.3469 32.4847 20.8874 31.8877 20.5648 31.2852C20.2422 30.676 20.0516 30.0829 19.9931 29.5056C19.9346 28.9218 20 28.3688 20.1892 27.8466C20.3784 27.3245 20.6833 26.8513 21.1039 26.4272C21.5278 25.9997 22.0001 25.6892 22.5206 25.4957C23.0412 25.3021 23.592 25.2338 24.173 25.2908C24.754 25.3412 25.3487 25.5268 25.9572 25.8476C26.5657 26.1619 27.1682 26.6148 27.7646 27.2063C28.3611 27.7977 28.8206 28.3981 29.1432 29.0072C29.4691 29.613 29.663 30.2095 29.7249 30.7966C29.7867 31.3771 29.7246 31.9301 29.5387 32.4555C29.3528 32.981 29.0479 33.4574 28.624 33.8849ZM27.8586 33.1258C28.2628 32.7182 28.5083 32.2486 28.5952 31.717C28.6821 31.1854 28.5906 30.6116 28.3207 29.9956C28.0476 29.3764 27.5763 28.7349 26.907 28.0711C26.2343 27.404 25.5889 26.9414 24.9708 26.6833C24.3559 26.4219 23.7863 26.3401 23.2621 26.438C22.7378 26.5359 22.2752 26.7869 21.8743 27.1912C21.4767 27.5921 21.2295 28.0568 21.1327 28.5852C21.0392 29.1102 21.1241 29.6808 21.3873 30.2967C21.6539 30.9094 22.1235 31.5493 22.7961 32.2163C23.4688 32.8834 24.1158 33.3509 24.7373 33.6189C25.3588 33.8803 25.935 33.9654 26.4659 33.8741C26.9967 33.7762 27.461 33.5268 27.8586 33.1258Z" fill="white"/>
<path d="M34.3343 28.6749L28.4606 20.1834L31.4082 18.1445C32.1873 17.6056 32.9077 17.3796 33.5694 17.4667C34.231 17.5537 34.8234 17.9753 35.3464 18.7314C35.6596 19.1842 35.8401 19.6297 35.8877 20.0677C35.9365 20.4992 35.8998 20.885 35.7775 21.2249C35.659 21.5622 35.506 21.8127 35.3185 21.9765C35.5364 21.8485 35.7796 21.7653 36.0482 21.7271C36.318 21.6823 36.5904 21.7152 36.8654 21.8257C37.1404 21.9362 37.3961 22.1622 37.6324 22.5038C37.8501 22.8185 38.0731 23.1409 38.3014 23.471C38.527 23.7972 38.75 24.1196 38.9704 24.4381C39.0845 24.6032 39.2002 24.7416 39.3173 24.8536C39.4318 24.9616 39.5209 25.0248 39.5846 25.0431L38.5944 25.7281C38.533 25.6968 38.4464 25.629 38.3346 25.5248C38.2228 25.4205 38.1085 25.284 37.9917 25.1151C37.7873 24.8196 37.5789 24.5183 37.3665 24.2113C37.1541 23.9042 36.9444 23.601 36.7373 23.3017C36.4771 22.9255 36.1644 22.7277 35.799 22.708C35.4336 22.6884 35.0341 22.8286 34.6004 23.1286L32.5106 24.5741L32.5281 24.0088L35.2957 28.0098L34.3343 28.6749ZM32.4723 23.9282L31.9133 23.7106L34.0146 22.2571C34.2986 22.0606 34.5079 21.8137 34.6426 21.5162C34.7785 21.2123 34.8293 20.8878 34.7949 20.5427C34.7617 20.1912 34.6283 19.8466 34.3947 19.5088C34.0309 18.983 33.6339 18.7044 33.2036 18.6729C32.7733 18.6415 32.2972 18.8063 31.7752 19.1673L29.72 20.5889L29.7247 19.9559L32.4723 23.9282Z" fill="white"/>
<path d="M39.6391 14.5664L39.8392 13.7229L41.8165 17.9448L41.3751 17.6954L44.9631 16.015L45.4084 16.9659L41.8204 18.6463L41.9115 18.1476L43.9037 22.4012L43.1276 22.0149L47.6411 19.901L48.0864 20.8519L42.977 23.2449L38.5978 13.8946L43.7072 11.5016L44.1526 12.4525L39.6391 14.5664Z" fill="white"/>
<path d="M56.6881 14.543L56.5537 13.799L61.3482 12.9332L61.4825 13.6771L56.6881 14.543Z" fill="white"/>
<path d="M75.6162 17.1407C74.9049 17.079 74.3055 16.9147 73.8181 16.6476C73.3357 16.3763 72.9794 16.0011 72.7492 15.5221C72.5191 15.0431 72.4334 14.4642 72.4922 13.7854C72.5003 13.6924 72.5071 13.6134 72.5128 13.5483C72.5184 13.4832 72.5253 13.4042 72.5333 13.3112L73.7259 13.4145C73.7182 13.5029 73.7117 13.5773 73.7065 13.6377C73.7013 13.6981 73.6946 13.7749 73.6866 13.8678C73.6249 14.5792 73.7664 15.109 74.1109 15.4574C74.4558 15.8012 74.984 16.0038 75.6953 16.0655C76.4299 16.1292 76.9964 16.0518 77.3947 15.8334C77.7931 15.6149 78.0166 15.2244 78.0654 14.6619C78.0996 14.2667 78.0188 13.9295 77.8228 13.6502C77.6319 13.3666 77.3537 13.1177 76.9882 12.9033C76.6231 12.6843 76.1938 12.4761 75.7003 12.2788C75.1437 12.0525 74.6517 11.7851 74.2241 11.4763C73.8011 11.168 73.4766 10.8049 73.2505 10.3872C73.0294 9.9652 72.9437 9.46827 72.9932 8.89642C73.0416 8.33851 73.2173 7.87829 73.5204 7.51578C73.8281 7.15366 74.2348 6.8938 74.7403 6.73619C75.2458 6.57858 75.8216 6.52778 76.4679 6.58379C77.1513 6.64302 77.7348 6.80132 78.2184 7.0587C78.707 7.31184 79.0698 7.66648 79.3066 8.12263C79.5485 8.57454 79.6412 9.12594 79.5848 9.77683C79.576 9.87911 79.5683 9.96745 79.5618 10.0418C79.5558 10.1116 79.5484 10.1976 79.5395 10.2999L78.347 10.1965C78.3546 10.1082 78.3615 10.0291 78.3675 9.95941C78.3735 9.88967 78.3804 9.81063 78.3881 9.7223C78.4469 9.04351 78.3049 8.5464 77.9622 8.23096C77.6199 7.91088 77.0977 7.72041 76.3957 7.65957C75.7216 7.60115 75.1906 7.67458 74.8027 7.87986C74.4149 8.08514 74.1976 8.45743 74.1509 8.99674C74.1158 9.40123 74.1984 9.74564 74.3986 10.03C74.6038 10.3101 74.8937 10.56 75.2681 10.7799C75.6429 10.995 76.0741 11.2081 76.5617 11.4189C77.1535 11.6716 77.6568 11.9448 78.0716 12.2384C78.4916 12.5277 78.8014 12.8707 79.0012 13.2675C79.2057 13.6646 79.2832 14.1491 79.2336 14.721C79.1841 15.2928 79.0046 15.7691 78.6952 16.1498C78.3905 16.5309 77.9755 16.8065 77.4502 16.9764C76.9296 17.1468 76.3182 17.2015 75.6162 17.1407Z" fill="white"/>
<path d="M90.8692 16.5445C90.7603 16.9453 90.5741 17.3372 90.3106 17.7202C90.0482 18.0987 89.7173 18.4271 89.3177 18.7055C88.9239 18.9806 88.4696 19.1667 87.9548 19.2639C87.44 19.3611 86.8764 19.3265 86.2639 19.1603C85.4217 18.9316 84.7649 18.5188 84.2936 17.9217C83.8234 17.3202 83.5375 16.5922 83.4359 15.7377C83.3387 14.8844 83.4246 13.9624 83.6936 12.9716C83.9638 11.9763 84.356 11.1374 84.8701 10.4549C85.39 9.76918 86.0042 9.28797 86.7128 9.0113C87.4213 8.73462 88.1967 8.71061 89.0389 8.93926C89.7415 9.13001 90.3013 9.43675 90.7185 9.85948C91.1356 10.2822 91.43 10.7563 91.6017 11.2816C91.7734 11.8069 91.8401 12.3183 91.8018 12.8156C91.7865 13.0677 91.7501 13.2996 91.6927 13.5113L90.5375 13.1977C90.5705 13.0761 90.5971 12.9334 90.6174 12.7697C90.6661 12.3767 90.6302 11.9922 90.5099 11.6162C90.3953 11.2369 90.1931 10.904 89.9034 10.6174C89.6149 10.3263 89.232 10.116 88.7546 9.98636C88.1962 9.83474 87.6659 9.85519 87.164 10.0477C86.6665 10.2415 86.2187 10.6083 85.8207 11.1482C85.4272 11.6893 85.1099 12.4035 84.8691 13.2907C84.6282 14.1779 84.5401 14.9567 84.6047 15.6271C84.675 16.2941 84.8752 16.8393 85.2051 17.2625C85.5408 17.6825 85.9879 17.9683 86.5464 18.1199C86.9472 18.2287 87.3203 18.2527 87.6656 18.1917C88.0122 18.1262 88.3221 18 88.5953 17.8131C88.8743 17.6228 89.1087 17.3915 89.2987 17.1191C89.49 16.8422 89.6284 16.5461 89.714 16.2309L90.8692 16.5445Z" fill="white"/>
<path d="M92.9828 21.3358L97.4158 12.0109L100.653 13.5497C101.508 13.9564 102.063 14.4683 102.318 15.0853C102.572 15.7023 102.502 16.4259 102.107 17.2562C101.871 17.7535 101.575 18.132 101.219 18.3917C100.869 18.6491 100.516 18.8096 100.16 18.873C99.809 18.9384 99.5155 18.9307 99.2801 18.8498C99.4997 18.9748 99.693 19.1443 99.8601 19.358C100.033 19.5696 100.141 19.8221 100.182 20.1156C100.223 20.4091 100.155 20.7434 99.9765 21.1185C99.8122 21.4641 99.6439 21.8182 99.4716 22.1806C99.3013 22.5389 99.133 22.8929 98.9667 23.2427C98.8805 23.4239 98.8181 23.5932 98.7795 23.7505C98.7429 23.9036 98.7325 24.0124 98.7484 24.0768L97.6611 23.5599C97.6576 23.491 97.6732 23.3822 97.7078 23.2333C97.7424 23.0844 97.8038 22.9172 97.892 22.7318C98.0462 22.4073 98.2035 22.0764 98.3638 21.7392C98.5241 21.4021 98.6824 21.0691 98.8387 20.7404C99.035 20.3273 99.0506 19.9575 98.8855 19.631C98.7204 19.3045 98.3997 19.028 97.9234 18.8016L95.6285 17.7106L96.1273 17.444L94.0386 21.8377L92.9828 21.3358ZM96.1694 17.3555L96.0793 16.7623L98.3869 17.8593C98.6987 18.0076 99.0172 18.066 99.3422 18.0345C99.6734 18.0007 99.98 17.883 100.262 17.6811C100.55 17.4771 100.782 17.1897 100.959 16.8188C101.233 16.2414 101.277 15.7583 101.09 15.3696C100.902 14.9809 100.522 14.6503 99.949 14.3778L97.692 13.3048L98.2432 12.9933L96.1694 17.3555Z" fill="white"/>
<path d="M105.016 28.4284C104.529 28.0746 104.152 27.6533 103.884 27.1646C103.62 26.6786 103.47 26.1427 103.434 25.5571C103.404 24.9704 103.5 24.3505 103.72 23.6975C103.945 23.0472 104.304 22.3822 104.797 21.7026C105.291 21.0229 105.811 20.4778 106.357 20.0671C106.91 19.6554 107.467 19.3766 108.029 19.2308C108.597 19.084 109.153 19.0643 109.698 19.1717C110.243 19.2791 110.757 19.5083 111.241 19.8593C111.728 20.2131 112.107 20.6325 112.377 21.1175C112.648 21.6025 112.799 22.1364 112.832 22.7193C112.87 23.3012 112.778 23.9173 112.553 24.5676C112.335 25.2169 111.98 25.8813 111.486 26.561C110.992 27.2406 110.469 27.7863 109.916 28.198C109.367 28.6124 108.807 28.895 108.236 29.0456C107.672 29.1952 107.116 29.2182 106.569 29.1145C106.021 29.0109 105.504 28.7822 105.016 28.4284ZM105.65 27.5562C106.114 27.8935 106.616 28.0646 107.155 28.0694C107.693 28.0743 108.246 27.8964 108.814 27.5358C109.384 27.1714 109.947 26.6079 110.501 25.8452C111.057 25.0787 111.416 24.3703 111.577 23.72C111.742 23.0725 111.736 22.4971 111.559 21.9939C111.382 21.4907 111.064 21.0718 110.603 20.7372C110.146 20.4053 109.649 20.2319 109.112 20.2167C108.579 20.2044 108.028 20.3752 107.459 20.7293C106.895 21.0861 106.334 21.6478 105.777 22.4143C105.22 23.1807 104.857 23.8915 104.687 24.5466C104.523 25.2006 104.527 25.7831 104.698 26.2938C104.876 26.8036 105.193 27.2244 105.65 27.5562Z" fill="white"/>
<path d="M111.042 33.3205L118.456 26.1351L119.289 26.9947L112.141 33.9219L112.253 33.0623L115.464 36.375L114.71 37.1057L111.042 33.3205Z" fill="white"/>
<path d="M116.907 39.922L125.312 33.924L126.007 34.8983L117.905 40.6808L118.144 39.8477L120.824 43.6025L119.969 44.2124L116.907 39.922Z" fill="white"/>
<path d="M135.239 55.3053L134.187 52.515L134.919 52.531L125.604 56.0423L125.185 54.9288L134.499 51.4175L133.982 51.9714L132.91 49.1287L133.893 48.7583L136.221 54.9349L135.239 55.3053Z" fill="white"/>
<path d="M127.953 65.6006C127.844 65.0085 127.861 64.4431 128.004 63.9044C128.148 63.3702 128.408 62.8786 128.786 62.4296C129.169 61.9843 129.666 61.6012 130.276 61.2802C130.887 60.9639 131.605 60.7297 132.431 60.5778C133.258 60.4259 134.01 60.3895 134.689 60.4687C135.373 60.5517 135.969 60.7339 136.476 61.0155C136.989 61.3008 137.406 61.6702 137.726 62.1237C138.047 62.5772 138.261 63.0977 138.369 63.6851C138.478 64.2772 138.463 64.8422 138.325 65.3801C138.187 65.918 137.928 66.4091 137.55 66.8536C137.177 67.3018 136.685 67.6841 136.074 68.0004C135.468 68.3205 134.753 68.5566 133.927 68.7085C133.1 68.8604 132.345 68.8949 131.661 68.8119C130.977 68.7336 130.377 68.5522 129.86 68.2677C129.348 67.987 128.929 67.6203 128.604 67.1677C128.279 66.715 128.062 66.1926 127.953 65.6006ZM129.013 65.4056C129.117 65.9701 129.362 66.4399 129.749 66.8147C130.136 67.1896 130.659 67.4422 131.319 67.5723C131.983 67.7016 132.779 67.681 133.706 67.5106C134.638 67.3392 135.386 67.0735 135.951 66.7134C136.517 66.3579 136.909 65.937 137.128 65.4507C137.347 64.9644 137.405 64.4413 137.302 63.8814C137.2 63.326 136.96 62.8578 136.581 62.4766C136.204 62.1 135.687 61.8439 135.031 61.7083C134.376 61.5773 133.582 61.5975 132.65 61.7688C131.719 61.9402 130.965 62.2044 130.391 62.5616C129.821 62.9225 129.422 63.347 129.194 63.835C128.971 64.3267 128.911 64.8503 129.013 65.4056Z" fill="white"/>
<path d="M138.051 80.9843L138.672 81.5887L134.034 81.1208L134.474 80.8697L134.076 84.8117L133.032 84.7063L133.429 80.7643L133.811 81.0983L129.138 80.6268L129.867 80.1587L129.367 85.1176L128.322 85.0122L128.889 79.3987L139.161 80.435L138.595 86.0485L137.55 85.9431L138.051 80.9843Z" fill="white"/>
<path d="M132.202 92.9716L131.266 92.7075L137.638 91.0436L137.284 92.333L131.848 93.6802L132.061 92.9039L136.055 96.8155L135.701 98.1049L131.062 93.4501L132.002 93.7007L125.716 95.4752L126.071 94.1791L131.432 92.7096L131.208 93.5264L127.349 89.5211L127.702 88.2317L132.202 92.9716Z" fill="white"/>
<path d="M123.924 99.5862L124.435 98.5035L133.774 102.907L132.538 105.528C132.198 106.25 131.78 106.785 131.285 107.135C130.794 107.487 130.267 107.674 129.704 107.698C129.141 107.721 128.583 107.602 128.03 107.342C127.477 107.081 127.024 106.718 126.671 106.252C126.316 105.79 126.108 105.251 126.048 104.635C125.99 104.025 126.127 103.367 126.46 102.662L127.185 101.124L123.924 99.5862ZM127.584 101.312L128.365 101.084L127.472 102.977C127.233 103.483 127.124 103.945 127.144 104.362C127.166 104.786 127.299 105.155 127.542 105.471C127.783 105.791 128.117 106.052 128.543 106.253C128.974 106.456 129.379 106.549 129.758 106.531C130.138 106.514 130.487 106.377 130.804 106.119C131.122 105.861 131.404 105.471 131.651 104.947L132.543 103.054L132.928 103.831L127.584 101.312Z" fill="white"/>
<path d="M119.658 107.542L128.169 113.388L127.491 114.375L119.286 108.738L120.151 108.678L117.539 112.481L116.674 111.886L119.658 107.542Z" fill="white"/>
<path d="M111.645 117.242C112.067 116.812 112.538 116.5 113.061 116.306C113.581 116.116 114.133 116.046 114.717 116.096C115.302 116.152 115.901 116.337 116.515 116.651C117.125 116.968 117.731 117.42 118.331 118.008C118.931 118.596 119.395 119.19 119.721 119.79C120.048 120.397 120.242 120.989 120.304 121.566C120.366 122.149 120.305 122.703 120.119 123.226C119.933 123.75 119.631 124.225 119.213 124.651C118.792 125.082 118.322 125.395 117.802 125.592C117.283 125.789 116.733 125.861 116.151 125.807C115.57 125.761 114.974 125.579 114.363 125.262C113.753 124.952 113.148 124.503 112.547 123.915C111.947 123.327 111.484 122.73 111.157 122.123C110.828 121.519 110.63 120.924 110.564 120.337C110.499 119.757 110.557 119.204 110.74 118.677C110.922 118.15 111.224 117.672 111.645 117.242ZM112.416 117.996C112.014 118.406 111.772 118.877 111.688 119.41C111.605 119.942 111.7 120.515 111.974 121.129C112.251 121.747 112.726 122.385 113.4 123.045C114.076 123.707 114.725 124.166 115.345 124.42C115.961 124.678 116.531 124.756 117.055 124.654C117.578 124.553 118.039 124.299 118.438 123.892C118.833 123.489 119.077 123.023 119.17 122.494C119.261 121.968 119.172 121.398 118.905 120.784C118.634 120.173 118.161 119.536 117.484 118.873C116.807 118.21 116.157 117.747 115.534 117.483C114.911 117.226 114.334 117.144 113.804 117.239C113.273 117.34 112.811 117.593 112.416 117.996Z" fill="white"/>
<path d="M105.968 122.489L111.896 130.942L108.962 133C108.186 133.544 107.467 133.775 106.805 133.692C106.143 133.609 105.548 133.191 105.02 132.438C104.704 131.988 104.52 131.543 104.47 131.106C104.418 130.674 104.453 130.288 104.573 129.948C104.689 129.61 104.841 129.358 105.027 129.193C104.81 129.323 104.567 129.407 104.299 129.447C104.029 129.494 103.757 129.463 103.481 129.354C103.205 129.245 102.948 129.021 102.71 128.681C102.49 128.367 102.265 128.046 102.035 127.718C101.807 127.393 101.582 127.072 101.359 126.755C101.244 126.591 101.128 126.453 101.01 126.342C100.895 126.234 100.805 126.172 100.741 126.154L101.727 125.463C101.789 125.494 101.876 125.561 101.988 125.664C102.101 125.768 102.216 125.904 102.334 126.072C102.54 126.366 102.75 126.666 102.965 126.972C103.179 127.277 103.391 127.579 103.6 127.877C103.862 128.252 104.176 128.447 104.542 128.465C104.907 128.482 105.306 128.339 105.738 128.037L107.818 126.578L107.804 127.143L105.011 123.16L105.968 122.489ZM107.861 127.223L108.421 127.437L106.329 128.904C106.046 129.103 105.839 129.351 105.706 129.649C105.572 129.954 105.523 130.279 105.56 130.624C105.595 130.975 105.731 131.319 105.967 131.655C106.334 132.178 106.732 132.454 107.163 132.483C107.593 132.512 108.068 132.344 108.588 131.98L110.634 130.545L110.634 131.178L107.861 127.223Z" fill="white"/>
<path d="M100.754 136.63L100.559 137.475L98.5549 133.266L98.9979 133.513L95.4207 135.216L94.9693 134.268L98.5465 132.565L98.4586 133.064L96.4393 128.823L97.2179 129.204L92.718 131.347L92.2665 130.399L97.3605 127.973L101.799 137.296L96.7054 139.721L96.254 138.773L100.754 136.63Z" fill="white"/>
<path d="M83.7055 136.763L83.8446 137.506L79.0558 138.402L78.9167 137.659L83.7055 136.763Z" fill="white"/>
</svg>
