<svg width="1052" height="135" viewBox="0 0 1052 135" fill="none" xmlns="http://www.w3.org/2000/svg">
<path opacity="0.01" d="M35.5 131.061V9.26079H66.8V131.061H35.5ZM0.2 29.3608L0.2 3.26078H102V29.3608H0.2ZM186.509 131.061L184.009 106.961C183.609 102.694 182.776 99.2275 181.509 96.5608C180.243 93.8275 178.309 91.8275 175.709 90.5608C173.109 89.2275 169.643 88.5608 165.309 88.5608L136.409 88.4608V64.5608L166.509 64.4608C173.043 64.4608 177.743 63.0275 180.609 60.1608C183.476 57.2941 184.909 52.9941 184.909 47.2608V45.2608C184.909 39.5941 183.476 35.3608 180.609 32.5608C177.809 29.6941 173.076 28.2608 166.409 28.2608H136.209V3.26078H170.909C186.576 3.26078 198.009 6.29412 205.209 12.3608C212.476 18.4275 216.109 27.1608 216.109 38.5608V41.1608C216.109 49.7608 213.909 56.4608 209.509 61.2608C205.109 66.0608 198.409 68.7941 189.409 69.4608V73.8608L183.009 69.5608C190.743 70.0941 196.743 71.6941 201.009 74.3608C205.276 77.0275 208.409 80.7608 210.409 85.5608C212.476 90.2941 213.976 96.1941 214.909 103.261L218.609 131.061H186.509ZM114.709 131.061V3.26078H145.109V73.1608L145.309 84.7608V131.061H114.709ZM283.136 134.161C264.869 134.161 251.336 129.761 242.536 120.961C233.803 112.094 229.436 99.1275 229.436 82.0608V3.26078H260.836V82.6608C260.836 90.9275 262.603 97.1941 266.136 101.461C269.736 105.661 275.403 107.761 283.136 107.761C290.936 107.761 296.603 105.661 300.136 101.461C303.669 97.1941 305.436 90.9275 305.436 82.6608V3.26078H336.836V82.0608C336.836 99.1275 332.469 112.094 323.736 120.961C315.069 129.761 301.536 134.161 283.136 134.161ZM394.652 133.761C388.718 133.761 383.152 133.361 377.952 132.561C372.818 131.827 368.118 130.861 363.852 129.661C359.652 128.394 355.952 127.094 352.752 125.761L350.052 96.9608C355.318 99.4275 361.552 101.727 368.752 103.861C375.952 105.927 383.585 106.961 391.652 106.961C399.452 106.961 404.985 105.994 408.252 104.061C411.585 102.061 413.252 98.9608 413.252 94.7608V94.0608C413.252 91.2608 412.485 88.9941 410.952 87.2608C409.485 85.4608 406.985 83.8275 403.452 82.3608C399.985 80.8275 395.285 79.1941 389.352 77.4608C380.418 74.7941 372.952 71.8275 366.952 68.5608C361.018 65.2941 356.585 61.2275 353.652 56.3608C350.718 51.4275 349.252 45.1941 349.252 37.6608V36.3608C349.252 24.7608 353.185 15.8941 361.052 9.76079C368.985 3.62745 380.618 0.560784 395.952 0.560784C405.152 0.560784 413.085 1.36079 419.752 2.96079C426.485 4.56078 432.185 6.46078 436.852 8.66078L439.552 35.4608C434.418 32.9941 428.585 30.9275 422.052 29.2608C415.585 27.5275 408.652 26.6608 401.252 26.6608C396.052 26.6608 391.952 27.0941 388.952 27.9608C386.018 28.8275 383.952 30.0941 382.752 31.7608C381.552 33.3608 380.952 35.3275 380.952 37.6608V38.0608C380.952 40.4608 381.618 42.5608 382.952 44.3608C384.352 46.1608 386.818 47.8941 390.352 49.5608C393.952 51.2275 399.052 53.0275 405.652 54.9608C414.518 57.5608 421.852 60.3608 427.652 63.3608C433.518 66.2941 437.885 70.1275 440.752 74.8608C443.685 79.5275 445.152 85.7608 445.152 93.5608V95.1608C445.152 108.027 440.985 117.694 432.652 124.161C424.318 130.561 411.652 133.761 394.652 133.761ZM483.367 131.061V9.26079L514.667 9.26079V131.061H483.367ZM448.067 29.3608V3.26078L549.867 3.26078V29.3608H448.067ZM562.577 131.061V3.26078H593.177V131.061H562.577ZM571.677 131.061V104.961H652.077V131.061H571.677ZM580.477 78.7608V53.6608H649.677V78.7608H580.477ZM571.577 29.0608V3.26078H651.177V29.0608H571.577ZM689.656 131.061V104.861H717.556C725.556 104.861 731.556 102.694 735.556 98.3608C739.556 94.0275 741.556 87.8275 741.556 79.7608V54.1608C741.556 46.0941 739.556 39.9275 735.556 35.6608C731.556 31.3275 725.556 29.1608 717.556 29.1608H689.556V3.26078H718.656C736.856 3.26078 750.456 7.66078 759.456 16.4608C768.523 25.1941 773.056 37.7608 773.056 54.1608V79.8608C773.056 96.3275 768.556 108.994 759.556 117.861C750.556 126.661 736.923 131.061 718.656 131.061H689.656ZM667.756 131.061V3.26078H698.556V131.061H667.756ZM854.127 131.061V106.361H887.827C893.827 106.361 898.093 105.227 900.627 102.961C903.227 100.694 904.527 97.2941 904.527 92.7608V91.0608C904.527 86.5275 903.227 83.1275 900.627 80.8608C898.093 78.5275 893.727 77.3608 887.527 77.3608H853.627V54.5608H886.727C892.527 54.5608 896.627 53.4275 899.027 51.1608C901.427 48.8941 902.627 45.5941 902.627 41.2608V40.2608C902.627 35.9941 901.427 32.7941 899.027 30.6608C896.627 28.4608 892.527 27.3608 886.727 27.3608H853.527V3.26078H890.027C905.493 3.26078 916.593 5.86078 923.327 11.0608C930.06 16.1941 933.427 23.7941 933.427 33.8608V35.3608C933.427 42.9608 931.427 48.8608 927.427 53.0608C923.493 57.2608 917.293 59.6275 908.827 60.1608V61.2608C918.227 62.5275 925.093 65.6941 929.427 70.7608C933.76 75.8275 935.927 82.9275 935.927 92.0608V94.7608C935.927 106.761 932.393 115.827 925.327 121.961C918.327 128.027 907.093 131.061 891.627 131.061H854.127ZM831.827 131.061V3.26078H861.827V131.061H831.827ZM979.772 97.6608L936.072 3.26078H968.772L984.972 41.7608L992.972 62.6608H994.572L1002.47 41.7608L1018.57 3.26078H1051.27L1007.77 97.6608H979.772ZM978.372 131.061V69.5608H1009.17V131.061H978.372Z" fill="white"/>
</svg>
