<svg width="53" height="53" viewBox="0 0 53 53" fill="none" xmlns="http://www.w3.org/2000/svg">
<path d="M26.7502 0.5C12.2761 0.5 0.500244 12.2758 0.500244 26.75C0.500244 41.2231 12.2761 53 26.7502 53C41.2234 53 53.0002 41.2231 53.0002 26.75C53.0002 12.2758 41.2255 0.5 26.7502 0.5ZM38.4605 20.7421C38.4721 21.0022 38.4785 21.2644 38.4785 21.5266C38.4785 29.5108 32.4029 38.714 21.2869 38.714C17.8748 38.714 14.6985 37.7169 12.0255 36.0019C12.4981 36.0579 12.9792 36.0865 13.4666 36.0865C16.2982 36.0865 18.9025 35.1201 20.9707 33.5002C18.3273 33.4515 16.0952 31.7048 15.3265 29.3035C15.6945 29.3733 16.0741 29.4124 16.4621 29.4124C17.013 29.4124 17.548 29.3405 18.0545 29.202C15.2906 28.648 13.2086 26.2065 13.2086 23.2776C13.2086 23.2523 13.2086 23.2258 13.2097 23.2015C14.0239 23.653 14.9554 23.9258 15.9451 23.9565C14.3252 22.8748 13.2583 21.0244 13.2583 18.9287C13.2583 17.8206 13.5555 16.7823 14.0757 15.8899C17.0543 19.5462 21.5079 21.9506 26.5282 22.2044C26.4246 21.7614 26.3728 21.3014 26.3728 20.8267C26.3728 17.4907 29.0775 14.7849 32.4135 14.7849C34.1518 14.7849 35.7198 15.5187 36.8237 16.6924C38.2014 16.4217 39.4914 15.9205 40.6619 15.2258C40.2073 16.6374 39.2525 17.8206 38.0016 18.5692C39.225 18.4233 40.3923 18.0997 41.4719 17.6186C40.6661 18.8283 39.6416 19.893 38.4605 20.7421Z" fill="#1A1A1A"/>
</svg>
